<svg xmlns="http://www.w3.org/2000/svg" xmlns:xlink="http://www.w3.org/1999/xlink" viewBox="0 0 1600 600"><defs><clipPath id="clip-path"><rect width="1600" height="600" style="fill:none"/></clipPath></defs><title>brand</title><g id="Capa_7" data-name="Capa 7"><g style="clip-path:url(#clip-path)"><rect x="0.5" y="0.5" width="1599" height="599" style="fill:#09f"/><path d="M1599,1V599H1V1H1599m1-1H0V600H1600V0Z"/><circle cx="41" cy="294.08" r="199.5" style="fill:#2558bf"/><path d="M41,95.08A199.21,199.21,0,0,1,224.36,216.62a199.64,199.64,0,0,1,0,154.92A198.84,198.84,0,0,1,41,493.08,199.25,199.25,0,0,1-142.36,371.54a199.64,199.64,0,0,1,0-154.92,198.26,198.26,0,0,1,42.65-63.26A198.29,198.29,0,0,1,41,95.08m0-1c-110.46,0-200,89.54-200,200s89.54,200,200,200,200-89.55,200-200-89.54-200-200-200Z"/><circle cx="40" cy="290.08" r="149.5" style="fill:#fff"/><path d="M40,141.08a148,148,0,0,1,105.36,43.64,149,149,0,0,1,0,210.72A148,148,0,0,1,40,439.08,148,148,0,0,1-65.36,395.44a149,149,0,0,1,0-210.72A148,148,0,0,1,40,141.08m0-1a150,150,0,1,0,150,150,150,150,0,0,0-150-150Z"/><circle cx="1516" cy="504.08" r="149.5" style="fill:#1c2746"/><path d="M1516,355.08a149,149,0,1,1-105.36,43.64A148,148,0,0,1,1516,355.08m0-1a150,150,0,1,0,150,150,150,150,0,0,0-150-150Z"/><circle cx="110" cy="134.08" r="9.5" style="fill:#08a600"/><path d="M110,125.08a9,9,0,1,1-9,9,9,9,0,0,1,9-9m0-1a10,10,0,1,0,10,10,10,10,0,0,0-10-10Z"/><circle cx="110" cy="184.08" r="9.5" style="fill:#08a600"/><path d="M110,175.08a9,9,0,1,1-9,9,9,9,0,0,1,9-9m0-1a10,10,0,1,0,10,10,10,10,0,0,0-10-10Z"/><circle cx="110" cy="234.08" r="9.5" style="fill:#08a600"/><path d="M110,225.08a9,9,0,1,1-9,9,9,9,0,0,1,9-9m0-1a10,10,0,1,0,10,10,10,10,0,0,0-10-10Z"/><circle cx="166" cy="134.08" r="9.5" style="fill:#08a600"/><path d="M166,125.08a9,9,0,1,1-9,9,9,9,0,0,1,9-9m0-1a10,10,0,1,0,10,10,10,10,0,0,0-10-10Z"/><circle cx="166" cy="184.08" r="9.5" style="fill:#08a600"/><path d="M166,175.08a9,9,0,1,1-9,9,9,9,0,0,1,9-9m0-1a10,10,0,1,0,10,10,10,10,0,0,0-10-10Z"/><circle cx="166" cy="234.08" r="9.5" style="fill:#08a600"/><path d="M166,225.08a9,9,0,1,1-9,9,9,9,0,0,1,9-9m0-1a10,10,0,1,0,10,10,10,10,0,0,0-10-10Z"/><circle cx="219" cy="184.08" r="9.5" style="fill:#08a600"/><path d="M219,175.08a9,9,0,1,1-9,9,9,9,0,0,1,9-9m0-1a10,10,0,1,0,10,10,10,10,0,0,0-10-10Z"/><circle cx="219" cy="134.08" r="9.5" style="fill:#08a600"/><path d="M219,125.08a9,9,0,1,1-9,9,9,9,0,0,1,9-9m0-1a10,10,0,1,0,10,10,10,10,0,0,0-10-10Z"/><circle cx="219" cy="234.08" r="9.5" style="fill:#08a600"/><path d="M219,225.08a9,9,0,1,1-9,9,9,9,0,0,1,9-9m0-1a10,10,0,1,0,10,10,10,10,0,0,0-10-10Z"/><circle cx="433" cy="510.08" r="49.5" style="fill:#fff"/><path d="M433,461.08a49,49,0,1,1-49,49,49.05,49.05,0,0,1,49-49m0-1a50,50,0,1,0,50,50,50,50,0,0,0-50-50Z"/><circle cx="1086" cy="113.08" r="49.5" style="fill:#1c2746"/><path d="M1086,64.08a49,49,0,1,1-49,49,49.05,49.05,0,0,1,49-49m0-1a50,50,0,1,0,50,50,50,50,0,0,0-50-50Z"/><path d="M259.34,320.08V268.54h6.82v51.54Z" style="fill:#fcfcfc"/><path d="M278,320.08V268.54h10.26L300.44,305c1.12,3.4,1.95,5.94,2.46,7.63q.89-2.82,2.74-8.26L318,268.54h9.18v51.54h-6.58V276.94l-15,43.14h-6.15L284.55,276.2v43.88Z" style="fill:#fcfcfc"/><path d="M332.5,320.08l19.8-51.54h7.34l21.1,51.54H373l-6-15.61H345.4l-5.66,15.61Zm14.87-21.17h17.48l-5.38-14.27Q357,278.13,355.81,274A65.57,65.57,0,0,1,353,283.8Z" style="fill:#fcfcfc"/><path d="M410.3,299.86v-6.05l21.84,0V312.9a38.2,38.2,0,0,1-10.38,6,30.7,30.7,0,0,1-11,2A29.21,29.21,0,0,1,397,317.7a21.44,21.44,0,0,1-9.37-9.4,29.6,29.6,0,0,1-3.17-13.75,31.87,31.87,0,0,1,3.15-14,21,21,0,0,1,9.05-9.69,28.39,28.39,0,0,1,13.61-3.16,27,27,0,0,1,10.11,1.81,16.82,16.82,0,0,1,7.08,5,22.41,22.41,0,0,1,3.9,8.44l-6.15,1.69a19.11,19.11,0,0,0-2.88-6.19,11.79,11.79,0,0,0-4.93-3.6,18.08,18.08,0,0,0-7.1-1.36,20.87,20.87,0,0,0-8.08,1.43,15.07,15.07,0,0,0-5.5,3.74,18,18,0,0,0-3.26,5.1,27,27,0,0,0-2,10.37,25.18,25.18,0,0,0,2.38,11.53,15.12,15.12,0,0,0,6.91,6.89,21.36,21.36,0,0,0,9.63,2.25,22.86,22.86,0,0,0,8.65-1.7,22.52,22.52,0,0,0,6.4-3.64v-9.6Z" style="fill:#fcfcfc"/><path d="M442.33,320.08V268.54H479.6v6.08H449.15V290.4h28.51v6.05H449.15V314h31.64v6.09Z" style="fill:#fcfcfc"/><path d="M490.14,320.08V268.54h7L524.21,309V268.54h6.54v51.54h-7l-27.07-40.5v40.5Z" style="fill:#fcfcfc"/><path d="M562.21,320.08V268.54H580a42.46,42.46,0,0,1,9.17.74A17.41,17.41,0,0,1,596.7,273a20.94,20.94,0,0,1,6.1,8.8,34.56,34.56,0,0,1,2,12.26,35.76,35.76,0,0,1-1.37,10.4,25.08,25.08,0,0,1-3.51,7.51,18.56,18.56,0,0,1-4.7,4.67,19.17,19.17,0,0,1-6.15,2.59,35.4,35.4,0,0,1-8.28.88ZM569,314h11a26.88,26.88,0,0,0,8-.94,11.54,11.54,0,0,0,4.62-2.68,16.15,16.15,0,0,0,3.78-6.52,32,32,0,0,0,1.35-9.93q0-8.09-2.65-12.43a13.42,13.42,0,0,0-6.45-5.82q-2.75-1.05-8.83-1.05H569Z" style="fill:#fcfcfc"/><path d="M614.35,320.08V268.54h37.27v6.08H621.17V290.4h28.51v6.05H621.17V314h31.64v6.09Z" style="fill:#fcfcfc"/><path d="M682,320.08V268.54h6.82V314h25.38v6.09Z" style="fill:#fcfcfc"/><path d="M716.62,320.08l19.79-51.54h7.35l21.09,51.54h-7.77l-6-15.61H729.52l-5.66,15.61Zm14.87-21.17H749l-5.38-14.27q-2.46-6.51-3.65-10.69a65.57,65.57,0,0,1-2.78,9.85Z" style="fill:#fcfcfc"/><path d="M786.48,320.08V268.54h37.26v6.08H793.3V290.4h28.51v6.05H793.3V314h31.64v6.09Z" style="fill:#fcfcfc"/><path d="M834.29,320.08V268.54h7L868.35,309V268.54h6.54v51.54h-7l-27.07-40.5v40.5Z" style="fill:#fcfcfc"/><path d="M899.47,320.08V274.62h-17v-6.08h40.85v6.08H906.29v45.46Z" style="fill:#fcfcfc"/><path d="M930.44,320.08V268.54h22.85c4.59,0,8.09.46,10.48,1.39a11.44,11.44,0,0,1,5.73,4.9,14.61,14.61,0,0,1,2.14,7.77,13,13,0,0,1-3.55,9.25q-3.55,3.75-11,4.78a17.58,17.58,0,0,1,4.12,2.56,35.63,35.63,0,0,1,5.66,6.86l9,14h-8.58l-6.82-10.73q-3-4.64-4.92-7.1a15.32,15.32,0,0,0-3.46-3.44,10,10,0,0,0-3.11-1.37,20,20,0,0,0-3.8-.25h-7.91v22.89Zm6.82-28.8h14.66a22.11,22.11,0,0,0,7.31-1,7.79,7.79,0,0,0,4-3.1,8.4,8.4,0,0,0,1.37-4.62,7.67,7.67,0,0,0-2.65-6q-2.65-2.35-8.39-2.36H937.26Z" style="fill:#fcfcfc"/><path d="M976.67,320.08l19.79-51.54h7.35l21.09,51.54h-7.77l-6-15.61H989.57l-5.66,15.61Zm14.87-21.17H1009l-5.38-14.27q-2.46-6.51-3.65-10.69a65.57,65.57,0,0,1-2.78,9.85Z" style="fill:#fcfcfc"/><path d="M1030.35,320.08V268.54h17.76a42.46,42.46,0,0,1,9.17.74,17.41,17.41,0,0,1,7.56,3.69,20.94,20.94,0,0,1,6.1,8.8,34.56,34.56,0,0,1,2,12.26,35.76,35.76,0,0,1-1.37,10.4,25.08,25.08,0,0,1-3.51,7.51,18.56,18.56,0,0,1-4.7,4.67,19.17,19.17,0,0,1-6.15,2.59,35.4,35.4,0,0,1-8.28.88Zm6.82-6.09h11a26.88,26.88,0,0,0,8-.94,11.54,11.54,0,0,0,4.62-2.68,16.15,16.15,0,0,0,3.78-6.52,32,32,0,0,0,1.35-9.93q0-8.09-2.65-12.43a13.42,13.42,0,0,0-6.45-5.82q-2.74-1.05-8.83-1.05h-10.83Z" style="fill:#fcfcfc"/><path d="M1076.69,320.08l19.79-51.54h7.35l21.09,51.54h-7.77l-6-15.61h-21.55l-5.66,15.61Zm14.87-21.17H1109l-5.38-14.27q-2.46-6.51-3.65-10.69a65.57,65.57,0,0,1-2.78,9.85Z" style="fill:#fcfcfc"/><path d="M1146.54,320.08V268.54h37.27v6.08h-30.44V290.4h28.51v6.05h-28.51V314H1185v6.09Z" style="fill:#fcfcfc"/><path d="M1231.2,302l6.82,1.72q-2.14,8.4-7.72,12.81a21.25,21.25,0,0,1-13.62,4.42q-8.33,0-13.55-3.4a21.19,21.19,0,0,1-8-9.82,35.2,35.2,0,0,1-2.72-13.82,30.21,30.21,0,0,1,3.08-14,21,21,0,0,1,8.75-9.11,25.61,25.61,0,0,1,12.5-3.11,21.08,21.08,0,0,1,13,3.94,20.37,20.37,0,0,1,7.35,11.07l-6.71,1.58q-1.8-5.62-5.21-8.19a13.85,13.85,0,0,0-8.57-2.57,16.7,16.7,0,0,0-9.94,2.85,15,15,0,0,0-5.6,7.65,30.75,30.75,0,0,0-1.62,9.9,31.36,31.36,0,0,0,1.92,11.47,14.19,14.19,0,0,0,6,7.33,16.66,16.66,0,0,0,8.75,2.43,14.63,14.63,0,0,0,9.7-3.31Q1229.8,308.51,1231.2,302Z" style="fill:#fcfcfc"/><path d="M1244.35,295q0-12.83,6.89-20.09t17.79-7.26A24.71,24.71,0,0,1,1281.9,271a22.31,22.31,0,0,1,8.73,9.51,30.83,30.83,0,0,1,3,13.84,30.34,30.34,0,0,1-3.17,14,21.49,21.49,0,0,1-9,9.37A25.54,25.54,0,0,1,1269,321a24.38,24.38,0,0,1-13-3.52,22.6,22.6,0,0,1-8.69-9.6A29,29,0,0,1,1244.35,295Zm7,.11q0,9.32,5,14.68a17.48,17.48,0,0,0,25.24-.05q5-5.41,5-15.37a26.33,26.33,0,0,0-2.13-11,16.34,16.34,0,0,0-6.22-7.28,16.92,16.92,0,0,0-9.2-2.59,17.43,17.43,0,0,0-12.46,5Q1251.38,283.45,1251.38,295.08Z" style="fill:#fcfcfc"/><path d="M1311.43,320.08l-13.68-51.54h7l7.84,33.78q1.26,5.31,2.18,10.55c1.31-5.51,2.08-8.68,2.32-9.53l9.81-34.8h8.22l7.39,26.08a138.26,138.26,0,0,1,4,18.25q1-4.89,2.57-11.22l8.09-33.11H1364l-14.13,51.54h-6.58l-10.86-39.27q-1.37-4.92-1.62-6.05c-.54,2.37-1,4.38-1.51,6.05l-10.93,39.27Z" style="fill:#fcfcfc"/><path d="M1362.05,320.08l19.8-51.54h7.34l21.1,51.54h-7.77l-6-15.61H1375l-5.67,15.61Zm14.87-21.17h17.48L1389,284.64q-2.46-6.51-3.66-10.69a64.41,64.41,0,0,1-2.78,9.85Z" style="fill:#fcfcfc"/><path d="M1413.42,303.52l6.43-.56a14.07,14.07,0,0,0,2.13,6.34,11.62,11.62,0,0,0,5.18,4,19.65,19.65,0,0,0,7.91,1.53,19,19,0,0,0,6.89-1.16,9.61,9.61,0,0,0,4.45-3.18,7.41,7.41,0,0,0,1.46-4.42,6.7,6.7,0,0,0-1.41-4.23,10.32,10.32,0,0,0-4.64-3,90.61,90.61,0,0,0-9.17-2.52,47,47,0,0,1-10-3.21,13.91,13.91,0,0,1-5.5-4.8,11.75,11.75,0,0,1-1.82-6.42,13.06,13.06,0,0,1,2.22-7.29,13.65,13.65,0,0,1,6.47-5.15,24.38,24.38,0,0,1,9.46-1.76,25.82,25.82,0,0,1,10.1,1.84,14.65,14.65,0,0,1,6.74,5.44,15.6,15.6,0,0,1,2.53,8.12l-6.54.49a10.52,10.52,0,0,0-3.57-7.38q-3-2.51-9-2.5c-4.13,0-7.13.76-9,2.27a6.78,6.78,0,0,0-2.83,5.46,5.86,5.86,0,0,0,2,4.57c1.32,1.2,4.74,2.43,10.29,3.68a67.18,67.18,0,0,1,11.4,3.29,15.62,15.62,0,0,1,6.65,5.25,12.81,12.81,0,0,1,2.14,7.33,14,14,0,0,1-2.35,7.75,15.44,15.44,0,0,1-6.77,5.66,23.53,23.53,0,0,1-9.93,2,29.68,29.68,0,0,1-11.73-2,16.41,16.41,0,0,1-7.41-6.14A17.3,17.3,0,0,1,1413.42,303.52Z" style="fill:#fcfcfc"/><path d="M1476.87,320.08V274.62h-17v-6.08h40.85v6.08h-17v45.46Z" style="fill:#fcfcfc"/><path d="M1507.88,320.08V268.54h37.27v6.08H1514.7V290.4h28.51v6.05H1514.7V314h31.64v6.09Z" style="fill:#fcfcfc"/><circle cx="1461" cy="19.08" r="9.5" style="fill:#319a00"/><path d="M1461,10.08a9,9,0,1,1-9,9,9,9,0,0,1,9-9m0-1a10,10,0,1,0,10,10,10,10,0,0,0-10-10Z"/><circle cx="1461" cy="69.08" r="9.5" style="fill:#319a00"/><path d="M1461,60.08a9,9,0,1,1-9,9,9,9,0,0,1,9-9m0-1a10,10,0,1,0,10,10,10,10,0,0,0-10-10Z"/><circle cx="1461" cy="119.08" r="9.5" style="fill:#319a00"/><path d="M1461,110.08a9,9,0,1,1-9,9,9,9,0,0,1,9-9m0-1a10,10,0,1,0,10,10,10,10,0,0,0-10-10Z"/><circle cx="1517" cy="19.08" r="9.5" style="fill:#319a00"/><path d="M1517,10.08a9,9,0,1,1-9,9,9,9,0,0,1,9-9m0-1a10,10,0,1,0,10,10,10,10,0,0,0-10-10Z"/><circle cx="1517" cy="69.08" r="9.5" style="fill:#319a00"/><path d="M1517,60.08a9,9,0,1,1-9,9,9,9,0,0,1,9-9m0-1a10,10,0,1,0,10,10,10,10,0,0,0-10-10Z"/><circle cx="1517" cy="119.08" r="9.5" style="fill:#319a00"/><path d="M1517,110.08a9,9,0,1,1-9,9,9,9,0,0,1,9-9m0-1a10,10,0,1,0,10,10,10,10,0,0,0-10-10Z"/><circle cx="1570" cy="69.08" r="9.5" style="fill:#319a00"/><path d="M1570,60.08a9,9,0,1,1-9,9,9,9,0,0,1,9-9m0-1a10,10,0,1,0,10,10,10,10,0,0,0-10-10Z"/><circle cx="1570" cy="19.08" r="9.5" style="fill:#319a00"/><path d="M1570,10.08a9,9,0,1,1-9,9,9,9,0,0,1,9-9m0-1a10,10,0,1,0,10,10,10,10,0,0,0-10-10Z"/><circle cx="1570" cy="119.08" r="9.5" style="fill:#319a00"/><path d="M1570,110.08a9,9,0,1,1-9,9,9,9,0,0,1,9-9m0-1a10,10,0,1,0,10,10,10,10,0,0,0-10-10Z"/><circle cx="1461" cy="169.08" r="9.5" style="fill:#319a00"/><path d="M1461,160.08a9,9,0,1,1-9,9,9,9,0,0,1,9-9m0-1a10,10,0,1,0,10,10,10,10,0,0,0-10-10Z"/><circle cx="1517" cy="169.08" r="9.5" style="fill:#319a00"/><path d="M1517,160.08a9,9,0,1,1-9,9,9,9,0,0,1,9-9m0-1a10,10,0,1,0,10,10,10,10,0,0,0-10-10Z"/><circle cx="1570" cy="169.08" r="9.5" style="fill:#319a00"/><path d="M1570,160.08a9,9,0,1,1-9,9,9,9,0,0,1,9-9m0-1a10,10,0,1,0,10,10,10,10,0,0,0-10-10Z"/><circle cx="1461" cy="219.08" r="9.5" style="fill:#319a00"/><path d="M1461,210.08a9,9,0,1,1-9,9,9,9,0,0,1,9-9m0-1a10,10,0,1,0,10,10,10,10,0,0,0-10-10Z"/><circle cx="1517" cy="219.08" r="9.5" style="fill:#319a00"/><path d="M1517,210.08a9,9,0,1,1-9,9,9,9,0,0,1,9-9m0-1a10,10,0,1,0,10,10,10,10,0,0,0-10-10Z"/><circle cx="1570" cy="219.08" r="9.5" style="fill:#319a00"/><path d="M1570,210.08a9,9,0,1,1-9,9,9,9,0,0,1,9-9m0-1a10,10,0,1,0,10,10,10,10,0,0,0-10-10Z"/><path d="M455,660.58a74.5,74.5,0,1,1,74.5-74.5A74.58,74.58,0,0,1,455,660.58Zm0-140a65.5,65.5,0,1,0,65.5,65.5A65.57,65.57,0,0,0,455,520.58Z" style="fill:#1d751b"/><path d="M455,512.08a74,74,0,1,1-74,74,74.08,74.08,0,0,1,74-74m0,140a66,66,0,1,0-66-66,66.08,66.08,0,0,0,66,66m0-141a75,75,0,1,0,75,75,75,75,0,0,0-75-75Zm0,140a65,65,0,1,1,65-65,65,65,0,0,1-65,65Z"/><path d="M935,190.58c-110,0-199.5-89.5-199.5-199.5S825-208.42,935-208.42s199.5,89.49,199.5,199.5S1045,190.58,935,190.58Zm0-390c-105,0-190.5,85.45-190.5,190.5S830,181.58,935,181.58s190.5-85.46,190.5-190.5S1040-199.42,935-199.42Z" style="fill:#167013"/><path d="M935-207.92a197.84,197.84,0,0,1,77.46,15.63,198.44,198.44,0,0,1,63.25,42.65,198.26,198.26,0,0,1,42.65,63.26A197.67,197.67,0,0,1,1134-8.92a197.74,197.74,0,0,1-15.64,77.46,198.33,198.33,0,0,1-42.65,63.25,198.11,198.11,0,0,1-63.25,42.65A197.67,197.67,0,0,1,935,190.08a197.67,197.67,0,0,1-77.46-15.64,198.11,198.11,0,0,1-63.25-42.65,198.33,198.33,0,0,1-42.65-63.25A197.74,197.74,0,0,1,736-8.92a197.67,197.67,0,0,1,15.64-77.46,198.26,198.26,0,0,1,42.65-63.26,198.44,198.44,0,0,1,63.25-42.65A197.84,197.84,0,0,1,935-207.92m0,390c105.32,0,191-85.69,191-191s-85.68-191-191-191-191,85.68-191,191,85.68,191,191,191m0-391c-110.46,0-200,89.54-200,200s89.54,200,200,200,200-89.55,200-200-89.54-200-200-200Zm0,390c-104.93,0-190-85.07-190-190s85.07-190,190-190,190,85.06,190,190-85.07,190-190,190Z"/></g></g></svg>