<svg xmlns="http://www.w3.org/2000/svg" xmlns:xlink="http://www.w3.org/1999/xlink" viewBox="0 0 1825 870"><defs><clipPath id="clip-path" transform="translate(159 208.92)"><rect width="1600" height="600" style="fill:none"/></clipPath></defs><title>brand</title><g id="Capa_7" data-name="Capa 7"><g style="clip-path:url(#clip-path)"><rect x="159.5" y="209.42" width="1599" height="599" style="fill:#09f"/><path d="M1599,1V599H1V1H1599m1-1H0V600H1600V0Z" transform="translate(159 208.92)"/><circle cx="200" cy="503" r="199.5" style="fill:#2558bf"/><path d="M41,95.08A199.21,199.21,0,0,1,224.36,216.62a199.64,199.64,0,0,1,0,154.92A198.84,198.84,0,0,1,41,493.08,199.25,199.25,0,0,1-142.36,371.54a199.64,199.64,0,0,1,0-154.92,198.26,198.26,0,0,1,42.65-63.26A198.29,198.29,0,0,1,41,95.08m0-1c-110.46,0-200,89.54-200,200s89.54,200,200,200,200-89.55,200-200-89.54-200-200-200Z" transform="translate(159 208.92)"/><circle cx="199" cy="499" r="149.5" style="fill:#fff"/><path d="M40,141.08a148,148,0,0,1,105.36,43.64,149,149,0,0,1,0,210.72A148,148,0,0,1,40,439.08,148,148,0,0,1-65.36,395.44a149,149,0,0,1,0-210.72A148,148,0,0,1,40,141.08m0-1a150,150,0,1,0,150,150,150,150,0,0,0-150-150Z" transform="translate(159 208.92)"/><circle cx="1675" cy="713" r="149.5" style="fill:#1c2746"/><path d="M1516,355.08a149,149,0,1,1-105.36,43.64A148,148,0,0,1,1516,355.08m0-1a150,150,0,1,0,150,150,150,150,0,0,0-150-150Z" transform="translate(159 208.92)"/><circle cx="269" cy="343" r="9.5" style="fill:#08a600"/><path d="M110,125.08a9,9,0,1,1-9,9,9,9,0,0,1,9-9m0-1a10,10,0,1,0,10,10,10,10,0,0,0-10-10Z" transform="translate(159 208.92)"/><circle cx="269" cy="393" r="9.5" style="fill:#08a600"/><path d="M110,175.08a9,9,0,1,1-9,9,9,9,0,0,1,9-9m0-1a10,10,0,1,0,10,10,10,10,0,0,0-10-10Z" transform="translate(159 208.92)"/><circle cx="269" cy="443" r="9.5" style="fill:#08a600"/><path d="M110,225.08a9,9,0,1,1-9,9,9,9,0,0,1,9-9m0-1a10,10,0,1,0,10,10,10,10,0,0,0-10-10Z" transform="translate(159 208.92)"/><circle cx="325" cy="343" r="9.5" style="fill:#08a600"/><path d="M166,125.08a9,9,0,1,1-9,9,9,9,0,0,1,9-9m0-1a10,10,0,1,0,10,10,10,10,0,0,0-10-10Z" transform="translate(159 208.92)"/><circle cx="325" cy="393" r="9.5" style="fill:#08a600"/><path d="M166,175.08a9,9,0,1,1-9,9,9,9,0,0,1,9-9m0-1a10,10,0,1,0,10,10,10,10,0,0,0-10-10Z" transform="translate(159 208.92)"/><circle cx="325" cy="443" r="9.5" style="fill:#08a600"/><path d="M166,225.08a9,9,0,1,1-9,9,9,9,0,0,1,9-9m0-1a10,10,0,1,0,10,10,10,10,0,0,0-10-10Z" transform="translate(159 208.92)"/><circle cx="378" cy="393" r="9.5" style="fill:#08a600"/><path d="M219,175.08a9,9,0,1,1-9,9,9,9,0,0,1,9-9m0-1a10,10,0,1,0,10,10,10,10,0,0,0-10-10Z" transform="translate(159 208.92)"/><circle cx="378" cy="343" r="9.5" style="fill:#08a600"/><path d="M219,125.08a9,9,0,1,1-9,9,9,9,0,0,1,9-9m0-1a10,10,0,1,0,10,10,10,10,0,0,0-10-10Z" transform="translate(159 208.92)"/><circle cx="378" cy="443" r="9.5" style="fill:#08a600"/><path d="M219,225.08a9,9,0,1,1-9,9,9,9,0,0,1,9-9m0-1a10,10,0,1,0,10,10,10,10,0,0,0-10-10Z" transform="translate(159 208.92)"/><circle cx="592" cy="719" r="49.5" style="fill:#fff"/><path d="M433,461.08a49,49,0,1,1-49,49,49.05,49.05,0,0,1,49-49m0-1a50,50,0,1,0,50,50,50,50,0,0,0-50-50Z" transform="translate(159 208.92)"/><circle cx="1245" cy="322" r="49.5" style="fill:#1c2746"/><path d="M1086,64.08a49,49,0,1,1-49,49,49.05,49.05,0,0,1,49-49m0-1a50,50,0,1,0,50,50,50,50,0,0,0-50-50Z" transform="translate(159 208.92)"/><text transform="translate(411.63 529)" style="font-size:72px;fill:#fcfcfc;font-family:ArialMT, Arial">IMAGEN DE L<tspan x="464.1" y="0" style="letter-spacing:-0.05517578125em">A</tspan><tspan x="508.15" y="0" xml:space="preserve"> ENTRAD</tspan><tspan x="824.17" y="0" style="letter-spacing:-0.05517578125em">A</tspan><tspan x="868.22" y="0" xml:space="preserve"> ECO</tspan><tspan x="1044.25" y="0" style="letter-spacing:-0.037109375em">W</tspan><tspan x="1109.53" y="0">ASTE</tspan></text><circle cx="1620" cy="228" r="9.5" style="fill:#319a00"/><path d="M1461,10.08a9,9,0,1,1-9,9,9,9,0,0,1,9-9m0-1a10,10,0,1,0,10,10,10,10,0,0,0-10-10Z" transform="translate(159 208.92)"/><circle cx="1620" cy="278" r="9.5" style="fill:#319a00"/><path d="M1461,60.08a9,9,0,1,1-9,9,9,9,0,0,1,9-9m0-1a10,10,0,1,0,10,10,10,10,0,0,0-10-10Z" transform="translate(159 208.92)"/><circle cx="1620" cy="328" r="9.5" style="fill:#319a00"/><path d="M1461,110.08a9,9,0,1,1-9,9,9,9,0,0,1,9-9m0-1a10,10,0,1,0,10,10,10,10,0,0,0-10-10Z" transform="translate(159 208.92)"/><circle cx="1676" cy="228" r="9.5" style="fill:#319a00"/><path d="M1517,10.08a9,9,0,1,1-9,9,9,9,0,0,1,9-9m0-1a10,10,0,1,0,10,10,10,10,0,0,0-10-10Z" transform="translate(159 208.92)"/><circle cx="1676" cy="278" r="9.5" style="fill:#319a00"/><path d="M1517,60.08a9,9,0,1,1-9,9,9,9,0,0,1,9-9m0-1a10,10,0,1,0,10,10,10,10,0,0,0-10-10Z" transform="translate(159 208.92)"/><circle cx="1676" cy="328" r="9.5" style="fill:#319a00"/><path d="M1517,110.08a9,9,0,1,1-9,9,9,9,0,0,1,9-9m0-1a10,10,0,1,0,10,10,10,10,0,0,0-10-10Z" transform="translate(159 208.92)"/><circle cx="1729" cy="278" r="9.5" style="fill:#319a00"/><path d="M1570,60.08a9,9,0,1,1-9,9,9,9,0,0,1,9-9m0-1a10,10,0,1,0,10,10,10,10,0,0,0-10-10Z" transform="translate(159 208.92)"/><circle cx="1729" cy="228" r="9.5" style="fill:#319a00"/><path d="M1570,10.08a9,9,0,1,1-9,9,9,9,0,0,1,9-9m0-1a10,10,0,1,0,10,10,10,10,0,0,0-10-10Z" transform="translate(159 208.92)"/><circle cx="1729" cy="328" r="9.5" style="fill:#319a00"/><path d="M1570,110.08a9,9,0,1,1-9,9,9,9,0,0,1,9-9m0-1a10,10,0,1,0,10,10,10,10,0,0,0-10-10Z" transform="translate(159 208.92)"/><circle cx="1620" cy="378" r="9.5" style="fill:#319a00"/><path d="M1461,160.08a9,9,0,1,1-9,9,9,9,0,0,1,9-9m0-1a10,10,0,1,0,10,10,10,10,0,0,0-10-10Z" transform="translate(159 208.92)"/><circle cx="1676" cy="378" r="9.5" style="fill:#319a00"/><path d="M1517,160.08a9,9,0,1,1-9,9,9,9,0,0,1,9-9m0-1a10,10,0,1,0,10,10,10,10,0,0,0-10-10Z" transform="translate(159 208.92)"/><circle cx="1729" cy="378" r="9.5" style="fill:#319a00"/><path d="M1570,160.08a9,9,0,1,1-9,9,9,9,0,0,1,9-9m0-1a10,10,0,1,0,10,10,10,10,0,0,0-10-10Z" transform="translate(159 208.92)"/><circle cx="1620" cy="428" r="9.5" style="fill:#319a00"/><path d="M1461,210.08a9,9,0,1,1-9,9,9,9,0,0,1,9-9m0-1a10,10,0,1,0,10,10,10,10,0,0,0-10-10Z" transform="translate(159 208.92)"/><circle cx="1676" cy="428" r="9.5" style="fill:#319a00"/><path d="M1517,210.08a9,9,0,1,1-9,9,9,9,0,0,1,9-9m0-1a10,10,0,1,0,10,10,10,10,0,0,0-10-10Z" transform="translate(159 208.92)"/><circle cx="1729" cy="428" r="9.5" style="fill:#319a00"/><path d="M1570,210.08a9,9,0,1,1-9,9,9,9,0,0,1,9-9m0-1a10,10,0,1,0,10,10,10,10,0,0,0-10-10Z" transform="translate(159 208.92)"/><path d="M455,660.58a74.5,74.5,0,1,1,74.5-74.5A74.58,74.58,0,0,1,455,660.58Zm0-140a65.5,65.5,0,1,0,65.5,65.5A65.57,65.57,0,0,0,455,520.58Z" transform="translate(159 208.92)" style="fill:#1d751b"/><path d="M455,512.08a74,74,0,1,1-74,74,74.08,74.08,0,0,1,74-74m0,140a66,66,0,1,0-66-66,66.08,66.08,0,0,0,66,66m0-141a75,75,0,1,0,75,75,75,75,0,0,0-75-75Zm0,140a65,65,0,1,1,65-65,65,65,0,0,1-65,65Z" transform="translate(159 208.92)"/><path d="M935,190.58c-110,0-199.5-89.5-199.5-199.5S825-208.42,935-208.42s199.5,89.49,199.5,199.5S1045,190.58,935,190.58Zm0-390c-105,0-190.5,85.45-190.5,190.5S830,181.58,935,181.58s190.5-85.46,190.5-190.5S1040-199.42,935-199.42Z" transform="translate(159 208.92)" style="fill:#167013"/><path d="M935-207.92a197.84,197.84,0,0,1,77.46,15.63,198.44,198.44,0,0,1,63.25,42.65,198.26,198.26,0,0,1,42.65,63.26A197.67,197.67,0,0,1,1134-8.92a197.74,197.74,0,0,1-15.64,77.46,198.33,198.33,0,0,1-42.65,63.25,198.11,198.11,0,0,1-63.25,42.65A197.67,197.67,0,0,1,935,190.08a197.67,197.67,0,0,1-77.46-15.64,198.11,198.11,0,0,1-63.25-42.65,198.33,198.33,0,0,1-42.65-63.25A197.74,197.74,0,0,1,736-8.92a197.67,197.67,0,0,1,15.64-77.46,198.26,198.26,0,0,1,42.65-63.26,198.44,198.44,0,0,1,63.25-42.65A197.84,197.84,0,0,1,935-207.92m0,390c105.32,0,191-85.69,191-191s-85.68-191-191-191-191,85.68-191,191,85.68,191,191,191m0-391c-110.46,0-200,89.54-200,200s89.54,200,200,200,200-89.55,200-200-89.54-200-200-200Zm0,390c-104.93,0-190-85.07-190-190s85.07-190,190-190,190,85.06,190,190-85.07,190-190,190Z" transform="translate(159 208.92)"/></g></g></svg>