<svg xmlns="http://www.w3.org/2000/svg" viewBox="0 0 476.17 353.11"><title>contenedor</title><g id="Capa_1" data-name="Capa 1"><path d="M260.91,37.71l-20.75.06.05,0c-3.13-4.82-9.81-4.79-13.27,0H200.09L199,37c-2.57-4.07-9.52-3.64-13.08.81l-20.91,0-2-1.86c-3.68-2.83-8.05-2.15-12.1,1.86a212.44,212.44,0,0,0-23.94.08L125.9,37c-.35-1.86-1.29-2.55-3.34-2.71-4.1-.31-7.65.42-10.53,3.5-2.48.2-5.36-1.68-7.27,1.41-7.62,12.29-15.32,24.53-22.82,36.9-6,9.92-12.63,19.5-17.9,29.88-1.29,2.2-.08,4.7-.8,7C55,113,55,113,55,120.84c0,5.8,0,5.8,8.16,6.12l.3,11L63,184.87c-5.31,0-10.62.06-15.93-.07-2.37-.06-3.61.35-3.6,3.2q.13,37.84,0,75.69c0,2.12.42,3.29,2.84,3.64,5.57.8,11.09,1.93,16.63,2.93.19,8.65.5,17.3.52,26q.12,33.73,0,67.48c0,3.61.77,5.09,4.67,4.86,3.61-.21,7.32-.67,10.91.45,0,5,0,9.92-.15,14.87-.06,2.09.16,3.42,2.85,3.34,5.78-.18,11.57-.12,17.36,0,2.13,0,2.91-.74,2.85-2.88-.15-5.13-.11-10.25-.15-15.38,1.81-.13,3.62-.38,5.43-.38q174.25,0,348.52,0c1.81,0,3.61.27,5.42.41,0,4.83.05,9.66-.14,14.48-.1,2.61.38,3.91,3.45,3.78,5.65-.24,11.32-.22,17,0,3,.11,3.62-1.16,3.51-3.82-.2-4.82-.12-9.65-.16-14.48,3-.13,6-.63,8.9-.31,4.85.53,6.4-.83,6.36-6.1-.21-30.72,0-61.44.13-92.16,5.21-.94,10.4-2.1,15.65-2.75,3.28-.4,3.84-1.95,3.82-4.89q-.15-36.86,0-73.71c0-3.11-.62-4.47-4.09-4.25-5.13.31-10.29.07-15.44.07L499.71,138l.21-11c4.07-.11,8.51,1.09,7.79-6.11-.77-7.61-.17-7.67-8.19-8-.09-2-.19-3.95-.28-5.93,0-.12.12-.25.09-.35a3,3,0,0,0-.3-.59c-12.75-22.36-26.49-44.13-40.09-66-2-4.45-5.85-1.79-8.89-2.22-3.67-3.94-8.07-4.67-12.41-2.06-.27.61-.55,1.23-.82,1.85L412,37.82c-.7-.65-1.42-1.29-2.12-2-2.78-2.67-9.58-2-10.83,1.13a.48.48,0,0,0-.21.56l-22.74.21C373.14,33.88,367.34,33,364,36c-.35.58-.7,1.16-1,1.74l-27.85-.09c-2.63-4.36-8.77-4.73-11.16-.67l-1,.83-20.84,0c-2.57-3.88-8.65-4.74-11.92-1.69-.13.46-.27.91-.41,1.36l-17.6.25-.83-.88C269,32.9,263.55,33.37,260.91,37.71Z" transform="translate(-43.42 -34.14)" style="fill:#fefefe"/><path d="M461.09,369c-1.81-.14-3.61-.41-5.42-.41q-174.26,0-348.52,0c-1.81,0-3.62.25-5.43.38L79,369c-3.59-1.12-7.3-.66-10.91-.45-3.9.23-4.69-1.25-4.67-4.86q.23-33.74,0-67.48c0-8.66-.33-17.31-.52-26q0-42.7,0-85.39L63.46,138H499.71q.17,23.43.34,46.85l.06,85.53c-.09,30.72-.34,61.44-.13,92.16,0,5.27-1.51,6.63-6.36,6.1-2.92-.32-5.93.18-8.9.31ZM385.58,238.33c-1.65.16-3.4.57-3.09,2.59.12.79-.17,2.5,1.28,2.68,1.11.14,2.45,0,2.54-1.65,1,.55.2,2.43,1.84,2.57C388,240.11,388,240.11,385.58,238.33ZM281.52,193q88,0,175.93.06c3.71,0,6-.31,5.62-5s-3.7-3-5.93-3Q322.7,185,188.25,185c-27.82,0-55.64.09-83.46-.1-4.24,0-5.12,1.58-4.83,5.26.35,4.28,3.53,2.78,5.64,2.79Q193.56,193.06,281.52,193ZM263.1,254.07c-.68-16.9-7.57-30.14-22.05-38.54-16.28-9.44-32.76-8.66-48.47,1.74-12.26,8.13-20.49,24.69-18.47,36.29,7.62-4,15.55-5.88,24-3.48,2.13.6,3.45-.45,4.9-1.63,3.74-3,7.32-6.33,11.33-9,10.22-6.7,18.83-6.19,28.36,1.42,2.85,2.27,5.34,5,8.12,7.35C254.26,251.18,257.89,253.76,263.1,254.07ZM195,291.64c16.95,12.49,44.65,8.21,58.31-9.63,1.26-1.64.18-2.22-.91-3.1-11-8.87-23.07-9.61-35-2.09C209.79,281.56,203.14,287.61,195,291.64ZM218.35,267a64.12,64.12,0,0,0-12.7-7.95c-6.25-2.86-12.69-3.79-19.45-2-11.56,3.1-13.34,6.94-7.9,17.37,6.77,13,12.79,14.25,24.41,5.13C207.81,275.59,212.24,270.79,218.35,267Zm-10.46-12.79c6.21,3,11.84,5.44,17,8.88a3.4,3.4,0,0,0,2.79.7c9.61-2.13,17.52,2,25.19,6.93,6,3.87,6.1,3.92,8.06-3.22.43-1.58,2.74-4-.29-5.12-6.8-2.59-11.32-8-16.55-12.58s-11-7.39-18.14-6.79C218.26,243.65,213.9,249.48,207.89,254.21Zm168.84-14.86c-4.93-.45-4.64-.45-4.51,3.94.23,7.83.06,15.67.06,23.5a177.55,177.55,0,0,1-16.71-22.85c-2.7-4.47-5.75-6-10.23-4.62a140.8,140.8,0,0,1-.28,33.84c-.14,1-1.35,2.58.12,3.1a7.67,7.67,0,0,0,4.83,0c1.48-.56.12-2.05,0-3.07-1.23-8.65-.72-17.28,0-26,6.7,8.7,12.87,17.52,19,26.37,1.35,1.95,2.65,4.22,5.46,3.26,2.64-.9,1.26-3.43,1.34-5.19C376.28,260.93,375,250.25,376.73,239.35Zm-69.88,4.75c1.78-5.23-.83-6.42-5-6.75a39.52,39.52,0,0,0-12.39,1c-10.15,2.42-16.54,11.79-15.63,22.54.88,10.44,7.08,16,18.71,16.69a49.55,49.55,0,0,0,8-.12c7.64-.76,7,.82,7.09-7.76,0-2.49.4-5,.29-7.48-.05-1.3,1.91-3.08-.33-3.84a8.7,8.7,0,0,0-4.93,0c-2.21.65-.58,2.52-.61,3.81-.09,3.16-.07,6.34.13,9.49.16,2.63-1,3.35-3.48,3.6-8,.83-13.95-2.22-16.73-8.84-3.47-8.28-1.65-18.59,4.08-23C292.06,238.66,299.83,238.9,306.85,244.1ZM336.38,256c-1.35-1.32-2.33-.62-3.26-.64-12.79-.28-9.8,2.38-10.29-10.31-.1-2.52.6-3.59,3.31-3.51,3.62.09,7.21.14,11,1.83-.43-2.19.95-4.52-2.63-4.42-6,.16-11.93,0-17.72,0a379.23,379.23,0,0,1-.2,38c6.14,0,12.27,0,18.4,0,4.37,0,4.37-.07,3.15-5.05-3.69,3.08-8.28,3.23-12.27,2.26-6.14-1.5-1.54-7.09-2.89-10.57-.17-.44.05-1,0-1.49-.44-2.63.83-3.47,3.3-3.54C329.7,258.5,333.26,258.76,336.38,256Z" transform="translate(-43.42 -34.14)" style="fill:#0084ff"/><path d="M271.31,36.8l.83.88c-.27,3.08-1.74,6.79-.53,9.08,1.53,2.89,5.7,1.12,8.69,1.17,10.25.19,10.26.08,9.44-10.5.14-.45.28-.9.41-1.36,1.24,1.45,1.45,3.27,1.88,5Q298.53,68,305,95c-1,6.15,0,7.36,5.7,7s2.4-4.58,3.23-7c-.91-4.52-1.78-9.06-2.74-13.57Q307.64,64.69,304,48c3.33,0,6.65.12,10,0,3.11-.13,6.83,1.3,9.19-.7s-.95-5.22-.19-8a5.37,5.37,0,0,0,0-1.49l1-.83c1.81,0,2.06,1.38,2.44,2.64.9,3,1.82,6,2.68,9q6.52,23.15,13,46.3c-.65,7.29-.65,7.1,5.11,7.09,6.08,0,3.12-4.42,3.75-7.09-1-3.84-1.92-7.7-3-11.53Q343,65.71,338,48h20c6.29,0,6.25,0,5.13-6.29a29.38,29.38,0,0,1-.19-4c.34-.58.69-1.16,1-1.74,3.35,4.78,4.81,10.44,7,15.73,5.85,14,11.38,28.16,17,42.25-.07,3.67-1.25,7.64,5.2,7.19,6-.42,3-4.53,3.78-7.15-.75-5-3.4-9.29-5-14-3.76-10.78-8.88-21-12-32.06,5.76,0,11.52-.11,17.27.06,3.54.11,4.25-1.22,2.3-3.91-1.57-2.17-.83-4.36-.72-6.58A.48.48,0,0,1,399,37c2.2,0,2.47,2,3.19,3.37,3.16,6.23,6.32,12.47,9.39,18.74C417.45,71,423.25,83,429.08,94.94c-.32,3.47-.61,6.21,4.67,6.28s5.74-2.3,5.18-6.27c-.67-1.68-1.23-3.42-2-5Q426.51,68.95,416,48l16.82,0c5.74,0,5.85-.06,3.62-5.14-.87-2,.81-3.49.34-5.27.27-.62.55-1.24.82-1.85,1.9,1.46,2.93,3.55,4.06,5.57,3.92,6.93,7.93,13.81,11.74,20.79C459.39,73,465.2,84,471.07,94.94c.31,2-1.31,4.84,1.35,5.75,2.41.82,5.65,1.3,7.69-.34,1.76-1.42,1.41-4.2,0-6.33-.86-2-1.57-4-2.59-5.88Q466.76,68.55,455.91,49c3.85-2,.7-6.43,3-9,13.6,21.85,27.34,43.62,40.09,66H65c-.32,0-.64,0-1,0,5.27-10.38,11.88-20,17.9-29.88,7.5-12.37,15.2-24.61,22.82-36.9,1.4,2.75-2,6.76,2.3,8.76-3.39,8.62-8.76,16.19-13,24.37C90.18,80,85.11,86.93,82,95a6.78,6.78,0,0,0,0,1.49c.34,1.81-1.14,4.5,1.45,5.22s5.73,1.3,7.71-.35c1.81-1.51-.41-3.91-1-5.89A2.57,2.57,0,0,0,90,95q15.84-27.66,31.65-55.35c1-1.77,2.09-3,4.27-2.61l1.11.88c.39,2.78-1.81,4.48-2.86,6.64-1.25,2.57-.79,3.53,2.16,3.49,6.58-.11,13.16,0,19.74,0C140.78,60.54,134.24,72.46,128,84.52c-1.59,3.07-3.77,5.88-4.09,9.5-1.16,2.56-2.4,5.59,1.14,6.83,5.63,2,7.86-.17,6.89-5.9a10.56,10.56,0,0,1,.54-1.89q13.62-26.81,27.27-53.57A6.59,6.59,0,0,1,163.05,36l2,1.86c-.26,2.54-1.75,4.58-2.87,6.74-1.32,2.57-.75,3.52,2.17,3.47,5.91-.12,11.82,0,17.73,0,0,2.56-1.22,4.76-2.05,7.09-4.76,13.38-10.76,26.3-15,39.89.81,2.38-2.3,6.34,2.8,7,7.08.91,8-.1,6.15-7,.67-1.51,1.39-3,2-4.54q9.82-24.93,19.62-49.89c.67-1.71.94-3.64,3.41-3.57l1.07.81a11.35,11.35,0,0,1-1.31,4.72c-2.26,5.4-2.21,5.47,3.42,5.48q10.92,0,21.83,0c-1.58,7.59-4.47,14.8-6.51,22.25-2.09,7.62-5.46,14.86-6.6,22.74-2.28,6.9-1.14,8.39,5.67,8.08,5.78-.27,2.51-4.6,3.42-7a18.2,18.2,0,0,0,1.23-2.61c4.93-16.41,9.87-32.8,14.65-49.25.72-2.45,1.4-4.38,4.32-4.41l-.05,0c-.19,2.14-.11,4.31-1,6.34-1.4,3-.44,4.08,2.89,4,5.65-.21,11.31,0,17,0-.83,3.38-1.7,6.75-2.48,10.14Q252.24,76.56,248,95c-.26,3.42-.63,6.56,4.69,6.15,4.93-.39,2.78-3.79,3.26-6.12,4.68-15,7.27-30.56,11.09-45.8C268.14,45,267.78,40.2,271.31,36.8Z" transform="translate(-43.42 -34.14)" style="fill:#353737"/><path d="M63.16,127c-8.16-.32-8.16-.32-8.16-6.12,0-7.8,0-7.8,8.23-7.86,1.33,0,2.67.07,4,.07h427.3c1.67,0,3.33-.11,5-.17,8,.32,7.42.38,8.19,8,.72,7.2-3.72,6-7.79,6.11Z" transform="translate(-43.42 -34.14)" style="fill:#0084ff"/><path d="M63.16,127l436.76,0-.21,11H63.46Z" transform="translate(-43.42 -34.14)" style="fill:#114972"/><path d="M499.52,112.88c-1.66.06-3.32.17-5,.17H67.23c-1.33,0-2.67,0-4-.07.73-2.27-.48-4.77.81-7,.32,0,.64,0,1,0,1.65,1.74,3.78,1,5.68,1q74.41.06,148.85,0l279.71,0C499.33,108.93,499.43,110.9,499.52,112.88Z" transform="translate(-43.42 -34.14)" style="fill:#494b4c"/><path d="M500.11,270.36l-.06-85.53c5.15,0,10.31.24,15.44-.07,3.47-.22,4.11,1.14,4.09,4.25q-.15,36.86,0,73.71c0,2.94-.54,4.49-3.82,4.89C510.51,268.26,505.32,269.42,500.11,270.36Z" transform="translate(-43.42 -34.14)" style="fill:#114972"/><path d="M63,184.87q0,42.69,0,85.39c-5.54-1-11.06-2.13-16.63-2.93-2.42-.35-2.84-1.52-2.84-3.64q.08-37.84,0-75.69c0-2.85,1.23-3.26,3.6-3.2C52.33,184.93,57.64,184.86,63,184.87Z" transform="translate(-43.42 -34.14)" style="fill:#114972"/><path d="M416,48Q426.48,69,436.9,89.92c.8,1.61,1.36,3.35,2,5h-9.85c-5.83-12-11.63-23.9-17.49-35.83-3.07-6.27-6.23-12.51-9.39-18.74-.72-1.4-1-3.32-3.19-3.37,1.25-3.09,8.05-3.8,10.83-1.13.7.66,1.42,1.3,2.12,2C412,41.77,414.66,44.64,416,48Z" transform="translate(-43.42 -34.14)" style="fill:#5c5d5d"/><path d="M210.92,93c1.14-7.88,4.51-15.12,6.6-22.74,2-7.45,4.93-14.66,6.51-22.25,1.81-3.16,3.11-6.46,2.91-10.2,3.46-4.84,10.14-4.87,13.27,0-2.92,0-3.6,2-4.32,4.41C231.11,58.6,226.17,75,221.24,91.4A18.2,18.2,0,0,1,220,94C217,93.57,213.76,95,210.92,93Z" transform="translate(-43.42 -34.14)" style="fill:#5c5d5d"/><path d="M199,37c-2.47-.07-2.74,1.86-3.41,3.57q-9.77,25-19.62,49.89c-.61,1.53-1.33,3-2,4.54l-9,0c4.21-13.59,10.21-26.51,15-39.89.83-2.33,2.05-4.53,2.05-7.09a17.36,17.36,0,0,0,3.88-10.19C189.5,33.35,196.45,32.92,199,37Z" transform="translate(-43.42 -34.14)" style="fill:#5c5d5d"/><path d="M304,48q3.61,16.7,7.23,33.4c1,4.51,1.83,9,2.74,13.57H305Q298.53,68,292,41.09c-.43-1.75-.64-3.57-1.88-5,3.27-3,9.35-2.19,11.92,1.69C301.72,41.36,302.7,44.71,304,48Z" transform="translate(-43.42 -34.14)" style="fill:#5c5d5d"/><path d="M388,94c-5.66-14.09-11.19-28.24-17-42.25-2.2-5.29-3.66-10.95-7-15.73,3.36-3,9.16-2.11,12.08,1.78A20.52,20.52,0,0,0,380,48c3.14,11,8.26,21.28,12,32.06,1.64,4.67,4.29,9,5,14Z" transform="translate(-43.42 -34.14)" style="fill:#5c5d5d"/><path d="M455.91,49q10.8,19.56,21.59,39.12c1,1.87,1.73,3.91,2.59,5.88a23.72,23.72,0,0,1-9,.92C465.2,84,459.39,73,453.44,62.11c-3.81-7-7.82-13.86-11.74-20.79-1.13-2-2.16-4.11-4.06-5.57,4.34-2.61,8.74-1.88,12.41,2.06C450.87,42.14,453.89,45.32,455.91,49Z" transform="translate(-43.42 -34.14)" style="fill:#5c5d5d"/><path d="M125.9,37c-2.18-.36-3.26.84-4.27,2.61Q105.87,67.36,90,95L82,95c3.07-8,8.14-15,12-22.61,4.21-8.18,9.58-15.75,13-24.37a16,16,0,0,0,5-10.17c2.88-3.08,6.43-3.81,10.53-3.5C124.61,34.48,125.55,35.17,125.9,37Z" transform="translate(-43.42 -34.14)" style="fill:#5c5d5d"/><path d="M338,48q5,17.7,9.95,35.41c1.06,3.83,2,7.69,3,11.53h-8.86q-6.51-23.15-13-46.3c-.86-3-1.78-6-2.68-9-.38-1.26-.63-2.67-2.44-2.64,2.39-4.06,8.53-3.69,11.16.67C335,41.39,336.78,44.62,338,48Z" transform="translate(-43.42 -34.14)" style="fill:#5c5d5d"/><path d="M123.9,94c.32-3.62,2.5-6.43,4.09-9.5,6.25-12.06,12.79-24,18.06-36.53A26.86,26.86,0,0,0,151,37.83c4.05-4,8.42-4.69,12.1-1.86a6.59,6.59,0,0,0-3.31,3.52q-13.63,26.79-27.27,53.57a10.56,10.56,0,0,0-.54,1.89A21.2,21.2,0,0,1,123.9,94Z" transform="translate(-43.42 -34.14)" style="fill:#5c5d5d"/><path d="M248,95q4.22-18.4,8.44-36.8c.78-3.39,1.65-6.76,2.48-10.14.65-3.44,2.33-6.69,2-10.32,2.64-4.34,8.08-4.81,10.4-.91-3.53,3.4-3.17,8.19-4.23,12.4C263.26,64.44,260.67,80,256,95,253.35,93.68,250.69,94.74,248,95Z" transform="translate(-43.42 -34.14)" style="fill:#5c5d5d"/><path d="M499.24,107l-279.71,0q-74.43,0-148.85,0c-1.9,0-4,.77-5.68-1H499a3,3,0,0,1,.3.59C499.36,106.7,499.27,106.83,499.24,107Z" transform="translate(-43.42 -34.14)" style="fill:#5c5d5d"/><path d="M461.09,369l23.63,0c0,4.83,0,9.66.16,14.48.11,2.66-.48,3.93-3.51,3.82-5.65-.22-11.32-.24-17,0-3.07.13-3.55-1.17-3.45-3.78C461.14,378.63,461.06,373.8,461.09,369Z" transform="translate(-43.42 -34.14)" style="fill:#114972"/><path d="M79,369l22.76-.08c0,5.13,0,10.25.15,15.38.06,2.14-.72,2.92-2.85,2.88-5.79-.09-11.58-.15-17.36,0-2.69.08-2.91-1.25-2.85-3.34C78.93,378.93,78.92,374,79,369Z" transform="translate(-43.42 -34.14)" style="fill:#114972"/><path d="M338,48c-1.22-3.39-3-6.62-2.91-10.37l27.85.09a29.38,29.38,0,0,0,.19,4C364.25,48,364.29,48,358,48Z" transform="translate(-43.42 -34.14)" style="fill:#494b4c"/><path d="M226.94,37.79c.2,3.74-1.1,7-2.91,10.2q-10.9,0-21.83,0c-5.63,0-5.68-.08-3.42-5.48a11.35,11.35,0,0,0,1.31-4.72Z" transform="translate(-43.42 -34.14)" style="fill:#494b4c"/><path d="M151,37.83A26.86,26.86,0,0,1,146.05,48c-6.58,0-13.16-.06-19.74,0-3,0-3.41-.92-2.16-3.49,1-2.16,3.25-3.86,2.86-6.64A212.44,212.44,0,0,1,151,37.83Z" transform="translate(-43.42 -34.14)" style="fill:#494b4c"/><path d="M416,48c-1.38-3.39-4.08-6.26-4.08-10.21l24.86-.22c.47,1.78-1.21,3.3-.34,5.27C438.71,48,438.6,48,432.86,48Z" transform="translate(-43.42 -34.14)" style="fill:#494b4c"/><path d="M380,48a20.52,20.52,0,0,1-3.89-10.22l22.74-.21c-.11,2.22-.85,4.41.72,6.58,2,2.69,1.24,4-2.3,3.91C391.47,47.88,385.71,48,380,48Z" transform="translate(-43.42 -34.14)" style="fill:#494b4c"/><path d="M185.94,37.8A17.36,17.36,0,0,1,182.06,48c-5.91,0-11.82-.07-17.73,0-2.92.05-3.49-.9-2.17-3.47,1.12-2.16,2.61-4.2,2.87-6.74Z" transform="translate(-43.42 -34.14)" style="fill:#494b4c"/><path d="M260.91,37.71c.38,3.63-1.3,6.88-2,10.32-5.65,0-11.31-.17-17,0-3.33.12-4.29-.94-2.89-4,.94-2,.86-4.2,1-6.34Z" transform="translate(-43.42 -34.14)" style="fill:#494b4c"/><path d="M304,48c-1.29-3.29-2.27-6.64-1.92-10.24l20.84,0a5.37,5.37,0,0,1,0,1.49c-.76,2.76,2.5,6,.19,8s-6.08.57-9.19.7C310.64,48.12,307.32,48,304,48Z" transform="translate(-43.42 -34.14)" style="fill:#494b4c"/><path d="M289.74,37.43c.82,10.58.81,10.69-9.44,10.5-3,0-7.16,1.72-8.69-1.17-1.21-2.29.26-6,.53-9.08Z" transform="translate(-43.42 -34.14)" style="fill:#494b4c"/><path d="M455.91,49c-2-3.7-5-6.88-5.86-11.21,3,.43,6.85-2.23,8.89,2.22C456.61,42.59,459.76,47,455.91,49Z" transform="translate(-43.42 -34.14)" style="fill:#494b4c"/><path d="M112,37.82a16,16,0,0,1-5,10.17c-4.26-2-.9-6-2.3-8.76C106.67,36.14,109.55,38,112,37.82Z" transform="translate(-43.42 -34.14)" style="fill:#494b4c"/><path d="M281.52,193q-88,0-175.92-.06c-2.11,0-5.29,1.49-5.64-2.79-.29-3.68.59-5.29,4.83-5.26,27.82.19,55.64.1,83.46.1q134.45,0,268.89.06c2.23,0,5.51-1.6,5.93,3s-1.91,5-5.62,5Q369.49,192.94,281.52,193Z" transform="translate(-43.42 -34.14)" style="fill:#114972"/><path d="M210.92,93c2.84,2,6.07.59,9.09,1-.91,2.45,2.36,6.78-3.42,7C209.78,101.37,208.64,99.88,210.92,93Z" transform="translate(-43.42 -34.14)" style="fill:#494b4c"/><path d="M165,95l9,0c1.81,6.88.93,7.89-6.15,7C162.74,101.31,165.85,97.35,165,95Z" transform="translate(-43.42 -34.14)" style="fill:#494b4c"/><path d="M342.07,95h8.86c-.63,2.67,2.33,7.08-3.75,7.09C341.42,102.05,341.42,102.24,342.07,95Z" transform="translate(-43.42 -34.14)" style="fill:#494b4c"/><path d="M82,95,90,95a2.57,2.57,0,0,1,.2.45c.58,2,2.8,4.38,1,5.89-2,1.65-5.22,1-7.71.35S82.35,98.27,82,96.46A6.78,6.78,0,0,1,82,95Z" transform="translate(-43.42 -34.14)" style="fill:#494b4c"/><path d="M305,95H314c-.83,2.45,2.38,6.7-3.23,7S304,101.12,305,95Z" transform="translate(-43.42 -34.14)" style="fill:#494b4c"/><path d="M471.07,94.94a23.72,23.72,0,0,0,9-.92c1.43,2.13,1.78,4.91,0,6.33-2,1.64-5.28,1.16-7.69.34C469.76,99.78,471.38,96.93,471.07,94.94Z" transform="translate(-43.42 -34.14)" style="fill:#494b4c"/><path d="M388,94l9,0c-.74,2.62,2.22,6.73-3.78,7.15C386.78,101.61,388,97.64,388,94Z" transform="translate(-43.42 -34.14)" style="fill:#494b4c"/><path d="M429.08,94.94h9.85c.56,4,.08,6.34-5.18,6.27S428.76,98.41,429.08,94.94Z" transform="translate(-43.42 -34.14)" style="fill:#494b4c"/><path d="M123.9,94a21.2,21.2,0,0,0,8,.93c1,5.73-1.26,7.88-6.89,5.9C121.5,99.61,122.74,96.58,123.9,94Z" transform="translate(-43.42 -34.14)" style="fill:#494b4c"/><path d="M248,95c2.65-.23,5.31-1.29,8,0-.48,2.33,1.67,5.73-3.26,6.12C247.41,101.53,247.78,98.39,248,95Z" transform="translate(-43.42 -34.14)" style="fill:#494b4c"/><rect x="15.92" y="168.86" width="435.67" height="143" style="fill:#0084ff"/></g><g id="Capa_3" data-name="Capa 3"><path d="M232.42,275.93V246.62h17.65v4.67H238v7.28h11.48v4.55H238v8.14h12v4.67Z" transform="translate(-43.42 -34.14)" style="fill:#fff"/><path d="M273.76,274.78A21.43,21.43,0,0,1,270,276a18.84,18.84,0,0,1-3.8.38,15.56,15.56,0,0,1-5.59-.93,10.5,10.5,0,0,1-4.11-2.77,12,12,0,0,1-2.53-4.56,23.65,23.65,0,0,1,.08-12.92,13.46,13.46,0,0,1,2.69-4.86,11.49,11.49,0,0,1,4.25-3,14.53,14.53,0,0,1,5.61-1c.68,0,1.31,0,1.9,0s1.17.09,1.74.17,1.14.19,1.72.33a18.74,18.74,0,0,1,1.82.51v5.47a17.54,17.54,0,0,0-3.63-1.27,14.45,14.45,0,0,0-3.14-.39,7.84,7.84,0,0,0-3.57.76,6.57,6.57,0,0,0-2.43,2.1,9.31,9.31,0,0,0-1.4,3.23,19.47,19.47,0,0,0,0,8.37,9,9,0,0,0,1.42,3.17,6.21,6.21,0,0,0,2.47,2,8.47,8.47,0,0,0,3.56.69,9.46,9.46,0,0,0,1.61-.15c.57-.1,1.16-.22,1.75-.38s1.17-.34,1.75-.56,1.11-.44,1.6-.66Z" transform="translate(-43.42 -34.14)" style="fill:#fff"/><path d="M298.62,261.15a22.33,22.33,0,0,1-.94,6.89,13.43,13.43,0,0,1-2.55,4.75,10.25,10.25,0,0,1-3.81,2.76,12.37,12.37,0,0,1-4.68.89q-5.77,0-8.7-3.84T275,261.42a22.59,22.59,0,0,1,.93-6.88,13.39,13.39,0,0,1,2.55-4.76,10.07,10.07,0,0,1,3.82-2.75,12.1,12.1,0,0,1,4.67-.9q5.79,0,8.7,3.83T298.62,261.15Zm-5.83.27c0-3.47-.47-6.05-1.39-7.76a4.82,4.82,0,0,0-4.58-2.55,5.26,5.26,0,0,0-2.71.66,5.09,5.09,0,0,0-1.85,1.94,9.87,9.87,0,0,0-1.07,3.15,25,25,0,0,0-.33,4.29c0,3.47.46,6.06,1.4,7.76a4.81,4.81,0,0,0,4.56,2.56,5.26,5.26,0,0,0,2.73-.67,5,5,0,0,0,1.85-1.94,10.13,10.13,0,0,0,1.05-3.15A24.71,24.71,0,0,0,292.79,261.42Z" transform="translate(-43.42 -34.14)" style="fill:#fff"/><path d="M337.59,275.93h-1.84l-7.15-21.78a12,12,0,0,1-.61-2.72h-.09a11.34,11.34,0,0,1-.69,2.68l-7.63,21.82h-1.83L308.19,247h2.49L318,270.18c.33,1.05.56,1.9.7,2.56h.09a19.24,19.24,0,0,1,.78-2.56L327.52,247h1.12l7.29,23.19a23.51,23.51,0,0,1,.69,2.56h.09a11.87,11.87,0,0,1,.36-1.29L344.61,247H347Z" transform="translate(-43.42 -34.14)" style="fill:#fff"/><path d="M368.39,275.93l-3.68-9H350.76l-3.67,9h-2.45L356.77,247h2.11l12,28.94Zm-9.87-24.22a9.79,9.79,0,0,1-.4-1.19c-.11-.33-.22-.67-.34-1h-.09a17.07,17.07,0,0,1-.74,2.16l-5.4,13.42H364Z" transform="translate(-43.42 -34.14)" style="fill:#fff"/><path d="M373,274.9v-2.28a13.91,13.91,0,0,0,7,2,9.68,9.68,0,0,0,5.71-1.41,4.55,4.55,0,0,0,1.95-3.92,4.78,4.78,0,0,0-1.31-3.54,26.31,26.31,0,0,0-5.68-3.61q-4.89-2.55-6.19-4.28a6.57,6.57,0,0,1,1.34-9.19,10.9,10.9,0,0,1,7.07-2.14,20.07,20.07,0,0,1,5.74.86v2.1a16,16,0,0,0-6-1.15,8.17,8.17,0,0,0-5.19,1.5,4.6,4.6,0,0,0-1.92,3.79,4.78,4.78,0,0,0,1.31,3.53,25.43,25.43,0,0,0,5.66,3.57c3,1.54,5,2.9,6,4.09a6.36,6.36,0,0,1,1.42,5.13,6.64,6.64,0,0,1-1,2.79q-2.49,3.72-8.72,3.71a18.35,18.35,0,0,1-3.82-.46A13.35,13.35,0,0,1,373,274.9Z" transform="translate(-43.42 -34.14)" style="fill:#fff"/><path d="M403.28,248.83v27.1h-2.2v-27.1H391.8V247h20.76v1.84Z" transform="translate(-43.42 -34.14)" style="fill:#fff"/><path d="M415.74,275.93V247h15v1.84H418v11.6h11.88v1.82H418v11.86H431.5v1.82Z" transform="translate(-43.42 -34.14)" style="fill:#fff"/><path d="M157.62,224.63A28.55,28.55,0,0,1,191.44,270c.48-1.81,4.38-17.55-6.25-31.34C175,225.4,159.65,224.69,157.62,224.63Z" transform="translate(-43.42 -34.14)" style="fill:#fff"/><path d="M131.5,258.87a28.55,28.55,0,0,1,56.2-6.63c-1.33-1.33-13-12.57-30.28-10.25C140.84,244.21,132.57,257.14,131.5,258.87Z" transform="translate(-43.42 -34.14)" style="fill:#fff"/><path d="M147.71,298.48a28.55,28.55,0,0,1,22.43-52c-1.81.49-17.39,5-24,21.06C139.71,283.05,146.75,296.69,147.71,298.48Z" transform="translate(-43.42 -34.14)" style="fill:#fff"/><path d="M190.69,304.13A28.54,28.54,0,0,1,156.62,259c-.48,1.82-4.29,17.57,6.42,31.31C173.33,303.46,188.66,304.09,190.69,304.13Z" transform="translate(-43.42 -34.14)" style="fill:#fff"/><path d="M216.69,269.47a28.54,28.54,0,0,1-56.09,7.47c1.35,1.31,13.2,12.37,30.42,9.8C207.57,284.27,215.65,271.22,216.69,269.47Z" transform="translate(-43.42 -34.14)" style="fill:#fff"/><path d="M199.9,230.35a28.54,28.54,0,0,1-22,52.12c1.81-.5,17.36-5.1,23.89-21.24C208,245.72,200.88,232.13,199.9,230.35Z" transform="translate(-43.42 -34.14)" style="fill:#fff"/></g></svg>