<svg id="Capa_1" data-name="Capa 1" xmlns="http://www.w3.org/2000/svg" viewBox="0 0 49.9 49.9"><title>home1</title><path d="M50,48.1v1c-.3.4-.5.8-1.2.9H1.4c-.7,0-1-.5-1.3-1v-.9a1.9,1.9,0,0,1,2-1H6.5c.2,0,.4,0,.4-.3V41c0-.2,0-.3-.2-.4a6.8,6.8,0,0,1-4-3.6A20.9,20.9,0,0,1,.9,21.7,40.5,40.5,0,0,1,7.1,9a1.5,1.5,0,0,1,2.5.1,34,34,0,0,1,2.8,4.5l.4.6V10.9A10.9,10.9,0,0,1,21.6.4,7.6,7.6,0,0,0,23.2.1H24c.1.2.2.1.4.1l1.7.2a10.8,10.8,0,0,1,8.5,10.8c.1,2.4,0,4.7,0,7.1a.9.9,0,0,0,.3.6l6.9,6.2.5.3V20.7a1.5,1.5,0,1,1,2.9,0c0,1.9.1,3.8,0,5.7a2.6,2.6,0,0,0,1.2,2.7l3.1,2.8a1.3,1.3,0,0,1,.2,1.9,1.4,1.4,0,0,1-1.8.5c-.1-.1-.2-.2-.3-.1V46.5c0,.5.1.7.6.6A1.5,1.5,0,0,1,50,48.1Zm-13.6-1h7.8c.3,0,.5,0,.5-.4V31.8a.5.5,0,0,0-.3-.5L30.9,19.2c-.3-.2-.4-.2-.6,0l-2.5,2.2-11,9.8a.5.5,0,0,0-.3.5V46.8c0,.3.1.3.3.3h2c.5,0,.6-.1.6-.5V35a1.5,1.5,0,0,1,1.7-1.7h5.3a1.6,1.6,0,0,1,1.8,1.8c0,3.9,0,7.7-.1,11.6,0,.3.1.4.5.4ZM31.7,16c0-1.8.1-3.5,0-5.2a8,8,0,0,0-16,.4v6.5a23.5,23.5,0,0,0,.5,5.9,6.4,6.4,0,0,0,1.1,2.7c.2.3.3.3.5.1l3.5-3.1a2.1,2.1,0,0,0,.9-2.1c-.1-.3-.1-.6-.4-.8l-2.5-2.5a1.6,1.6,0,0,1-.2-2.3,1.5,1.5,0,0,1,2.3.2l.8.8V12.4c0-1.1.6-1.7,1.5-1.7a1.5,1.5,0,0,1,1.4,1.6v7.1c0,.2-.1.3.1.4l4.1-3.6C30.2,15.4,30.6,15.3,31.7,16ZM8.3,12.5a49.4,49.4,0,0,0-3.6,6.8,18.9,18.9,0,0,0-.4,14.2,8.5,8.5,0,0,0,2.4,3.8,2.2,2.2,0,0,0,3.3,0,8,8,0,0,0,2-2.8c.1-.2-.1-.2-.2-.3a1.5,1.5,0,0,1-.2-2.3l1.3-1.2a.5.5,0,0,0,.3-.4,17.3,17.3,0,0,0,.1-6.4A32.3,32.3,0,0,0,8.3,12.5ZM25.2,41.7V36.6c0-.3,0-.4-.3-.4H22.7c-.3,0-.4.1-.4.4V46.8c0,.2.1.3.4.3h2.1c.4,0,.4-.1.4-.4ZM13.6,37.8h-.2A8.4,8.4,0,0,1,10,40.7c-.2,0-.2.1-.2.3v5.8a.3.3,0,0,0,.3.3h3.1c.3,0,.4-.1.4-.3C13.5,43.8,13.6,40.8,13.6,37.8Z" transform="translate(-0.1 -0.1)" style="fill:#1c2746"/><path d="M43.8.1c.3.2.7.1,1,.2A6.4,6.4,0,0,1,50,7.2a6.5,6.5,0,0,1-12.9-.4A6.5,6.5,0,0,1,42.9.2h.9Zm3.3,6.5a3.6,3.6,0,0,0-7.1,0,3.6,3.6,0,0,0,7.1,0Z" transform="translate(-0.1 -0.1)" style="fill:#1c2746"/><path d="M36.3,43.3H32.9a1.5,1.5,0,0,1-1.6-1.6V35A1.5,1.5,0,0,1,33,33.3h6.6A1.5,1.5,0,0,1,41.3,35v6.7a1.5,1.5,0,0,1-1.7,1.6Zm0-7.1H34.5c-.2,0-.3.1-.3.4V40c0,.3.1.4.4.4H38c.3,0,.4-.1.4-.4V36.6c0-.3-.1-.4-.4-.4Z" transform="translate(-0.1 -0.1)" style="fill:#1c2746"/></svg>