<svg id="Capa_1" data-name="Capa 1" xmlns="http://www.w3.org/2000/svg" viewBox="0 0 50 47.52"><title>home</title><path d="M.1,24.86V23.69A5.25,5.25,0,0,1,1.43,22Q12.25,12.13,23,2.27c1.43-1.3,2.69-1.3,4.11,0L48.54,21.75a4.82,4.82,0,0,1,1.56,2v1.07s-.07,0-.08.06a2.62,2.62,0,0,1-2.88,2H44.6c-.65,0-.65,0-.65.62V47.08a1.51,1.51,0,0,1-1.73,1.73H30.46c-1.22,0-1.75-.54-1.75-1.76q0-5.85,0-11.72c0-.34-.08-.42-.42-.42q-3.18,0-6.35,0c-.38,0-.48.09-.47.47q0,5.91,0,11.82A1.44,1.44,0,0,1,20,48.8c-4.08,0-8.17,0-12.25,0A1.42,1.42,0,0,1,6.42,48a2,2,0,0,1-.17-1V27.5c0-.62,0-.62-.65-.62H2.87A2.56,2.56,0,0,1,.2,25,1.3,1.3,0,0,0,.1,24.86Z" transform="translate(-0.1 -1.29)" style="fill:#1c2746"/><path d="M45,14.48A.68.68,0,0,0,45,14V6c0-1.25-.53-1.78-1.77-1.78H33.7Z" transform="translate(-0.1 -1.29)" style="fill:#fdfdfd"/><path d="M45,14.48,33.7,4.24h9.56C44.5,4.24,45,4.77,45,6v8A.68.68,0,0,1,45,14.48Z" transform="translate(-0.1 -1.29)" style="fill:#1c2746"/></svg>