<svg id="Capa_2" data-name="Capa 2" xmlns="http://www.w3.org/2000/svg" viewBox="0 0 1000.91 273.85"><defs><style>.cls-1,.cls-4{font-size:145px;}.cls-1,.cls-4,.cls-5{fill:#1c2746;}.cls-1{font-family:Consolas-Bold, Consolas;letter-spacing:-0.05em;}.cls-2{font-weight:700;}.cls-3{font-family:MicrosoftSansSerif, Microsoft Sans Serif;}.cls-4{font-family:SymbolMT, Symbol;letter-spacing:-0.05em;}</style></defs><title>LL</title><text class="cls-1" transform="translate(305.65 173.25)"><tspan class="cls-2">ECO</tspan><tspan class="cls-3" x="217.41" y="0"> </tspan></text><text class="cls-4" transform="translate(554.33 173.25) scale(1 0.9)">WASTE</text><path class="cls-5" d="M141.09,84.35A90.14,90.14,0,0,1,247.88,227.61c1.53-5.72,13.84-55.41-19.72-99C195.92,86.78,147.51,84.54,141.09,84.35Z" transform="translate(-58.62 -73.07)"/><path class="cls-5" d="M58.62,192.48a90.14,90.14,0,0,1,177.45-21c-4.2-4.18-41.09-39.66-95.59-32.35C88.12,146.19,62,187,58.62,192.48Z" transform="translate(-58.62 -73.07)"/><path class="cls-5" d="M109.81,317.55a90.14,90.14,0,0,1,70.84-164c-5.73,1.54-54.93,15.67-75.93,66.49C84.55,268.82,106.76,311.89,109.81,317.55Z" transform="translate(-58.62 -73.07)"/><path class="cls-5" d="M245.54,335.4A90.14,90.14,0,0,1,137.93,192.75c-1.49,5.73-13.52,55.49,20.29,98.86C190.69,333.28,239.12,335.25,245.54,335.4Z" transform="translate(-58.62 -73.07)"/><path class="cls-5" d="M327.62,226A90.14,90.14,0,0,1,150.5,249.53c4.26,4.12,41.68,39,96.07,30.94C298.82,272.67,324.33,231.47,327.62,226Z" transform="translate(-58.62 -73.07)"/><path class="cls-5" d="M274.62,102.4A90.14,90.14,0,0,1,205.06,267c5.71-1.58,54.8-16.1,75.41-67.08C300.26,150.93,277.71,108,274.62,102.4Z" transform="translate(-58.62 -73.07)"/></svg>