<svg id="Capa_2" data-name="Capa 2" xmlns="http://www.w3.org/2000/svg" viewBox="0 0 1234.93 273.85"><title>LL</title><path d="M377.3,246.33V153.79H433v14.73H395v23h36.25V205.9H395v25.7h38v14.73Z" transform="translate(229 -73.07)" style="fill:#1c2746"/><path d="M507.83,242.72a70.71,70.71,0,0,1-11.93,3.68,58.84,58.84,0,0,1-12,1.2,49.25,49.25,0,0,1-17.67-2.94,33.11,33.11,0,0,1-13-8.74,38.09,38.09,0,0,1-8-14.41,66.21,66.21,0,0,1-2.73-20,66.59,66.59,0,0,1,3-20.78A43.14,43.14,0,0,1,454,165.37a36.06,36.06,0,0,1,13.42-9.56,45.55,45.55,0,0,1,17.73-3.29c2.13,0,4.12,0,6,.14s3.69.27,5.48.53,3.61.6,5.46,1,3.75,1,5.73,1.62v17.28a55.3,55.3,0,0,0-11.47-4,46.45,46.45,0,0,0-9.91-1.2,24.67,24.67,0,0,0-11.26,2.37,20.65,20.65,0,0,0-7.68,6.66,29.48,29.48,0,0,0-4.43,10.19,61.68,61.68,0,0,0,0,26.41,27.62,27.62,0,0,0,4.5,10,19.59,19.59,0,0,0,7.78,6.27A27,27,0,0,0,486.66,232a31.16,31.16,0,0,0,5.06-.46q2.73-.47,5.53-1.21a55.31,55.31,0,0,0,5.52-1.77q2.72-1,5.06-2.09Z" transform="translate(229 -73.07)" style="fill:#1c2746"/><path d="M586.32,199.67a71.32,71.32,0,0,1-2.94,21.74,42.16,42.16,0,0,1-8.07,15,31.88,31.88,0,0,1-12,8.7A38.55,38.55,0,0,1,548.51,248q-18.25,0-27.47-12.15t-9.2-35.29a71.32,71.32,0,0,1,2.94-21.74,41.85,41.85,0,0,1,8.07-15,31.88,31.88,0,0,1,12-8.7,38.55,38.55,0,0,1,14.77-2.84q18.26,0,27.47,12.11T586.32,199.67Zm-18.41.85q0-16.43-4.39-24.5T549.08,168a16.62,16.62,0,0,0-8.57,2.09,16.26,16.26,0,0,0-5.84,6.12,31.33,31.33,0,0,0-3.36,10,77.12,77.12,0,0,0-1.06,13.56q0,16.43,4.42,24.5t14.41,8.07a16.78,16.78,0,0,0,8.6-2.09,15.89,15.89,0,0,0,5.84-6.12,31.93,31.93,0,0,0,3.33-9.95A77.12,77.12,0,0,0,567.91,200.52Z" transform="translate(229 -73.07)" style="fill:#1c2746"/><path d="M709.39,246.33h-5.81L681,177.57a37.43,37.43,0,0,1-1.91-8.6h-.28a37.29,37.29,0,0,1-2.19,8.48l-24.08,68.88h-5.8L616.57,155h7.85l23.16,73.22c1,3.31,1.77,6,2.19,8.09h.28a61,61,0,0,1,2.48-8.09L677.6,155h3.54l23,73.22a74.2,74.2,0,0,1,2.19,8.09h.29a31.53,31.53,0,0,1,1.13-4.08L731.55,155h7.57Z" transform="translate(229 -73.07)" style="fill:#1c2746"/><path d="M806.64,246.33,795,217.91H751l-11.61,28.42h-7.72L770,155h6.66l37.88,91.38Zm-31.15-76.47a30.92,30.92,0,0,1-1.28-3.76c-.33-1.06-.68-2.12-1.06-3.18h-.28a60.39,60.39,0,0,1-2.34,6.82l-17.06,42.37h39.15Z" transform="translate(229 -73.07)" style="fill:#1c2746"/><path d="M821.27,243.08v-7.2a44,44,0,0,0,22.09,6.24q11.89,0,18-4.43a14.37,14.37,0,0,0,6.16-12.39q0-7-4.14-11.18t-17.95-11.38Q830,194.65,825.94,189.2a20.31,20.31,0,0,1-4.11-12.58q0-9.69,8.36-16.44t22.3-6.76a62.54,62.54,0,0,1,18.12,2.74v6.63a50,50,0,0,0-19-3.63q-10.34,0-16.39,4.71a14.57,14.57,0,0,0-6.06,12q0,7,4.15,11.15t17.87,11.28q14.24,7.28,18.94,12.91a19.64,19.64,0,0,1,4.71,13,21.09,21.09,0,0,1-8.11,17.14q-8.1,6.63-22.9,6.63a58.81,58.81,0,0,1-12.07-1.46A42.06,42.06,0,0,1,821.27,243.08Z" transform="translate(229 -73.07)" style="fill:#1c2746"/><path d="M916.82,160.75v85.58h-6.94V160.75H880.57V155h65.56v5.8Z" transform="translate(229 -73.07)" style="fill:#1c2746"/><path d="M956.16,246.33V155h47.43v5.8H963.17v36.64h37.52v5.74H963.17v37.46h42.76v5.74Z" transform="translate(229 -73.07)" style="fill:#1c2746"/><path d="M141.09,84.35A90.14,90.14,0,0,1,247.88,227.61c1.53-5.72,13.84-55.41-19.72-99C195.92,86.78,147.51,84.54,141.09,84.35Z" transform="translate(229 -73.07)" style="fill:#1c2746"/><path d="M58.62,192.48a90.14,90.14,0,0,1,177.45-21c-4.2-4.18-41.09-39.66-95.59-32.35C88.12,146.19,62,187,58.62,192.48Z" transform="translate(229 -73.07)" style="fill:#1c2746"/><path d="M109.81,317.55a90.14,90.14,0,0,1,70.84-164c-5.73,1.54-54.93,15.67-75.93,66.49C84.55,268.82,106.76,311.89,109.81,317.55Z" transform="translate(229 -73.07)" style="fill:#1c2746"/><path d="M245.54,335.4A90.14,90.14,0,0,1,137.93,192.75c-1.49,5.73-13.52,55.49,20.29,98.86C190.69,333.28,239.12,335.25,245.54,335.4Z" transform="translate(229 -73.07)" style="fill:#1c2746"/><path d="M327.62,226A90.14,90.14,0,0,1,150.5,249.53c4.26,4.12,41.68,39,96.07,30.94C298.82,272.67,324.33,231.47,327.62,226Z" transform="translate(229 -73.07)" style="fill:#1c2746"/><path d="M274.62,102.4A90.14,90.14,0,0,1,205.06,267c5.71-1.58,54.8-16.1,75.41-67.08C300.26,150.93,277.71,108,274.62,102.4Z" transform="translate(229 -73.07)" style="fill:#1c2746"/><text x="229" y="-73.07"></text></svg>