<svg id="Capa_2" data-name="Capa 2" xmlns="http://www.w3.org/2000/svg" viewBox="0 0 1056 305.28"><title>LL</title><path d="M360.75,250.5V147.34h62.11v16.42H380.48v25.65h40.4v16h-40.4v28.65h42.38V250.5Z" transform="translate(-5.5 -57.36)" style="fill:#1c2746"/><path d="M506.25,246.47a78.59,78.59,0,0,1-13.3,4.1,65,65,0,0,1-13.38,1.35,55,55,0,0,1-19.69-3.28,37,37,0,0,1-14.44-9.75,42.49,42.49,0,0,1-8.92-16.06,73.76,73.76,0,0,1-3-22.29,74.46,74.46,0,0,1,3.32-23.17,48,48,0,0,1,9.47-17.12,40.36,40.36,0,0,1,15-10.66A50.88,50.88,0,0,1,481,145.92q3.56,0,6.67.16t6.12.59c2,.29,4,.67,6.08,1.15s4.18,1.07,6.39,1.81v19.26a60.66,60.66,0,0,0-12.79-4.5,51.26,51.26,0,0,0-11-1.34,27.45,27.45,0,0,0-12.54,2.64,23.07,23.07,0,0,0-8.57,7.42,32.71,32.71,0,0,0-4.93,11.37,68.46,68.46,0,0,0,0,29.43,30.91,30.91,0,0,0,5,11.17,22,22,0,0,0,8.68,7,30.18,30.18,0,0,0,12.55,2.4,34.11,34.11,0,0,0,5.64-.51q3-.51,6.16-1.34t6.16-2c2-.77,3.9-1.54,5.64-2.33Z" transform="translate(-5.5 -57.36)" style="fill:#1c2746"/><path d="M593.75,198.48q0,14.06-3.28,24.24a46.87,46.87,0,0,1-9,16.73,35.54,35.54,0,0,1-13.41,9.7,42.85,42.85,0,0,1-16.46,3.16q-20.36,0-30.62-13.53t-10.26-39.35q0-14,3.27-24.23a46.94,46.94,0,0,1,9-16.73,35.6,35.6,0,0,1,13.42-9.71,43,43,0,0,1,16.45-3.15q20.37,0,30.63,13.49T593.75,198.48Zm-20.52,1q0-18.3-4.9-27.31t-16.1-9a18.51,18.51,0,0,0-9.55,2.32,18.18,18.18,0,0,0-6.51,6.83,34.79,34.79,0,0,0-3.75,11.09,86.07,86.07,0,0,0-1.18,15.11q0,18.32,4.93,27.31t16.06,9a18.72,18.72,0,0,0,9.59-2.33,17.66,17.66,0,0,0,6.51-6.83A35.15,35.15,0,0,0,572,214.55,86.2,86.2,0,0,0,573.23,199.43Z" transform="translate(-5.5 -57.36)" style="fill:#1c2746"/><path d="M730.93,250.5h-6.47l-25.18-76.65a41.94,41.94,0,0,1-2.13-9.59h-.31a41.86,41.86,0,0,1-2.45,9.45L667.56,250.5h-6.48L627.46,148.64h8.76L662,230.25c1.16,3.7,2,6.7,2.45,9h.31a67.39,67.39,0,0,1,2.77-9l27.93-81.61h4l25.65,81.61a81.49,81.49,0,0,1,2.45,9h.31a37.61,37.61,0,0,1,1.27-4.54l26.52-86.09h8.44Z" transform="translate(-5.5 -57.36)" style="fill:#1c2746"/><path d="M839.34,250.5,826.4,218.82H777.31L764.36,250.5h-8.6l42.7-101.86h7.42L848.1,250.5Zm-34.72-85.24a35.8,35.8,0,0,1-1.43-4.19c-.36-1.19-.76-2.37-1.18-3.55h-.32a64.24,64.24,0,0,1-2.6,7.6l-19,47.23h43.65Z" transform="translate(-5.5 -57.36)" style="fill:#1c2746"/><path d="M855.65,246.87v-8a49.05,49.05,0,0,0,24.62,7q13.26,0,20.13-4.94t6.86-13.81q0-7.81-4.61-12.47t-20-12.68q-17.21-9-21.78-15.09a22.7,22.7,0,0,1-4.58-14q0-10.8,9.31-18.33t24.86-7.53A69.42,69.42,0,0,1,910.66,150v7.38a55.75,55.75,0,0,0-21.23-4.05q-11.53,0-18.27,5.26a16.24,16.24,0,0,0-6.75,13.35q0,7.81,4.62,12.43T889,196.94q15.87,8.1,21.12,14.38a21.9,21.9,0,0,1,5.25,14.46,23.54,23.54,0,0,1-9,19.1q-9,7.4-25.53,7.39a65,65,0,0,1-13.46-1.63A46.73,46.73,0,0,1,855.65,246.87Z" transform="translate(-5.5 -57.36)" style="fill:#1c2746"/><path d="M962.17,155.1v95.4h-7.74V155.1H921.76v-6.46h73.08v6.46Z" transform="translate(-5.5 -57.36)" style="fill:#1c2746"/><path d="M1006,250.5V148.64h52.87v6.46h-45.06v40.84h41.83v6.4h-41.83V244.1h47.67v6.4Z" transform="translate(-5.5 -57.36)" style="fill:#1c2746"/><path d="M97.43,69.94a100.48,100.48,0,0,1,119,159.7c1.71-6.39,15.43-61.78-22-110.34C158.55,72.65,104.59,70.15,97.43,69.94Z" transform="translate(-5.5 -57.36)" style="fill:#1c2746"/><path d="M5.5,190.47A100.48,100.48,0,0,1,203.31,167.1c-4.68-4.66-45.81-44.22-106.57-36.07C38.38,138.86,9.26,184.37,5.5,190.47Z" transform="translate(-5.5 -57.36)" style="fill:#1c2746"/><path d="M62.56,329.89a100.48,100.48,0,0,1,79-182.86c-6.38,1.71-61.23,17.46-84.64,74.12C34.4,275.57,59.16,323.58,62.56,329.89Z" transform="translate(-5.5 -57.36)" style="fill:#1c2746"/><path d="M213.87,349.78a100.48,100.48,0,0,1-120-159c-1.67,6.39-15.07,61.86,22.61,110.21C152.72,347.42,206.7,349.62,213.87,349.78Z" transform="translate(-5.5 -57.36)" style="fill:#1c2746"/><path d="M305.37,227.78a100.49,100.49,0,0,1-197.45,26.29c4.75,4.59,46.46,43.53,107.09,34.48C273.25,279.86,301.7,233.93,305.37,227.78Z" transform="translate(-5.5 -57.36)" style="fill:#1c2746"/><path d="M246.28,90.05a100.48,100.48,0,0,1-77.54,183.48c6.37-1.77,61.09-17.95,84.06-74.78C274.86,144.15,249.72,96.34,246.28,90.05Z" transform="translate(-5.5 -57.36)" style="fill:#1c2746"/></svg>