<svg xmlns="http://www.w3.org/2000/svg" viewBox="0 0 949.75 273.85"><title>LL</title><g id="Capa_1" data-name="Capa 1"><text transform="translate(305.65 173.25)" style="font-size:145px;fill:#1c2746;font-family:Consolas-Bold, Consolas;letter-spacing:-0.05em"><tspan style="font-weight:700">ECO</tspan><tspan x="217.41" y="0" style="font-family:MicrosoftSansSerif, Microsoft Sans Serif"> </tspan></text><text transform="translate(554.33 173.25) scale(1 0.9)" style="font-size:145px;fill:#1c2746;font-family:SegoeUI-Light, Segoe UI;letter-spacing:-0.10517241379310345em">W<tspan x="114.53" y="0" style="letter-spacing:-0.05em">ASTE</tspan></text><text x="-89.3" y="-73.07"></text></g><g id="Capa_2" data-name="Capa 2"><path d="M171.76,84.35a90.14,90.14,0,0,1,106.8,143.26c1.52-5.72,13.83-55.41-19.73-99C226.6,86.78,178.19,84.54,171.76,84.35Z" transform="translate(-89.3 -73.07)" style="fill:#1c2746"/><path d="M89.3,192.48a90.14,90.14,0,0,1,177.45-21c-4.2-4.18-41.1-39.66-95.6-32.35C118.79,146.19,92.67,187,89.3,192.48Z" transform="translate(-89.3 -73.07)" style="fill:#1c2746"/><path d="M140.48,317.55a90.14,90.14,0,0,1,70.84-164c-5.72,1.54-54.92,15.67-75.92,66.49C115.22,268.82,137.44,311.89,140.48,317.55Z" transform="translate(-89.3 -73.07)" style="fill:#1c2746"/><path d="M276.22,335.4A90.14,90.14,0,0,1,168.6,192.75c-1.49,5.73-13.51,55.49,20.29,98.86C221.37,333.28,269.79,335.25,276.22,335.4Z" transform="translate(-89.3 -73.07)" style="fill:#1c2746"/><path d="M358.3,226a90.14,90.14,0,0,1-177.12,23.58c4.26,4.12,41.67,39,96.06,30.94C329.49,272.67,355,231.47,358.3,226Z" transform="translate(-89.3 -73.07)" style="fill:#1c2746"/><path d="M305.29,102.4A90.14,90.14,0,0,1,235.73,267c5.72-1.58,54.81-16.1,75.41-67.08C330.94,150.93,308.38,108,305.29,102.4Z" transform="translate(-89.3 -73.07)" style="fill:#1c2746"/></g></svg>