<svg id="Capa_1" data-name="Capa 1" xmlns="http://www.w3.org/2000/svg" viewBox="0 0 50 44.66"><title>map</title><path d="M13,42.08,8.86,43.92,1.35,47.27C.72,47.56.52,47.5.1,47v-.78a28.42,28.42,0,0,0,.57-2.92c.45-2.4.87-4.81,1.3-7.22a1.09,1.09,0,0,1,.09-.23,2,2,0,0,0,.22-.09l9.83-5.19a9.3,9.3,0,0,1,1.74-.84c0,.47-.06.93-.1,1.4q-.23,3-.47,6c-.08,1-.22,2.1-.25,3.15A5.06,5.06,0,0,0,13,42.08Z" transform="translate(-0.1 -2.78)" style="fill:#a7edfa"/><path d="M50.1,47l-.27.27Q44.7,41.06,39.56,34.87c-1-1.2-2-2.45-3-3.6a.25.25,0,0,1-.1-.21l-.37-5c.18.19.37.37.53.56L49,41a11.43,11.43,0,0,1,.49,2.25c.22,1,.31,2,.6,3Z" transform="translate(-0.1 -2.78)" style="fill:#fcba25"/><path d="M16.69,19.76c-.34-.82-.73-1.63-1-2.46a10.9,10.9,0,0,1-.05-8A10.05,10.05,0,0,1,23.5,2.93c.18,0,.35-.05.53-.08a3.36,3.36,0,0,0,.88.23,10.18,10.18,0,0,1,5.41,3.35A9.87,9.87,0,0,1,32.7,12a13,13,0,0,1-1.42,7,25.89,25.89,0,0,1-3.53,5.28,34.26,34.26,0,0,1-3.93,4c-.69-.47-1.19-1.13-1.82-1.65a33.18,33.18,0,0,1-4-4.74C17.58,21.15,17.14,20.45,16.69,19.76ZM28.93,13a3.79,3.79,0,1,0-3.76,3.8A3.78,3.78,0,0,0,28.93,13Z" transform="translate(-0.1 -2.78)" style="fill:#fe4a4a"/><path d="M49,41,36.58,26.6c-.16-.19-.35-.37-.53-.56v0a1.51,1.51,0,0,1,.26-.12c1.63-.36,3.27-.71,4.89-1.09,1.25-.29,2.51-.49,3.73-.87l.73.38a1,1,0,0,1,.54.76c.48,2.65,1,5.31,1.45,8,.44,2.43.88,4.87,1.33,7.3A1.73,1.73,0,0,1,49,41Z" transform="translate(-0.1 -2.78)" style="fill:#1fa4e7"/><path d="M2.93,31.35a30.76,30.76,0,0,1,.51-3.17c.16-1,.38-2,.55-3a1.12,1.12,0,0,1,.61-.87L14.14,19a.73.73,0,0,1,.61-.12c0,.5-.06,1-.11,1.5-.17,1.71-.33,3.41-.38,5.12l-.11.08a1.25,1.25,0,0,0-.27.1l-9.3,4.89A8.66,8.66,0,0,1,2.93,31.35Z" transform="translate(-0.1 -2.78)" style="fill:#4de066"/><path d="M23.82,28.23a34.26,34.26,0,0,0,3.93-4A25.89,25.89,0,0,0,31.28,19a13,13,0,0,0,1.42-7,9.87,9.87,0,0,0-2.38-5.58,10.18,10.18,0,0,0-5.41-3.35A3.36,3.36,0,0,1,24,2.85a10.27,10.27,0,0,1,10.87,7A11.1,11.1,0,0,1,35,16a16.15,16.15,0,0,1-1.42,3.6c-.09.17-.18.34-.28.51A30.61,30.61,0,0,1,30,24.8a41.38,41.38,0,0,1-3,3A4.68,4.68,0,0,1,25.1,29.2,3.41,3.41,0,0,1,23.82,28.23Z" transform="translate(-0.1 -2.78)" style="fill:#e63540"/><path d="M2.93,31.35a8.66,8.66,0,0,0,1.65-.8l9.3-4.89a1.25,1.25,0,0,1,.27-.1c0,.26,0,.52,0,.77-.08,1.11-.18,2.21-.27,3.32v0l0,0a9.3,9.3,0,0,0-1.74.84L2.28,35.73a2,2,0,0,1-.22.09c.26-1.46.53-2.92.8-4.38l.07-.1Z" transform="translate(-0.1 -2.78)" style="fill:#fcda56"/><path d="M14.26,25.48c.05-1.71.21-3.41.38-5.12,0-.5.07-1,.11-1.5a5.7,5.7,0,0,1,1.42.65l.52.25c.45.69.89,1.39,1.35,2.08a33.18,33.18,0,0,0,4,4.74c-1.05-.14-2.09-.26-3.13-.41C17.33,26,15.79,25.71,14.26,25.48Z" transform="translate(-0.1 -2.78)" style="fill:#45c767"/><path d="M44.93,23.93c-1.22.38-2.48.58-3.73.87-1.62.38-3.26.73-4.89,1.09a1.51,1.51,0,0,0-.26.12c0-1.21-.25-2.41-.21-3.63l4.39-1.07Z" transform="translate(-0.1 -2.78)" style="fill:#fcba25"/><path d="M30,24.8a30.61,30.61,0,0,0,3.33-4.66c.1-.17.19-.34.28-.51a4.29,4.29,0,0,0,1.18-.52c.22-.09.4-.29.66-.24a17.69,17.69,0,0,1,.29,3.49c-1.62.72-3.25,1.45-4.88,2.16A1.57,1.57,0,0,1,30,24.8Z" transform="translate(-0.1 -2.78)" style="fill:#4de066"/><path d="M35.74,22.36a17.69,17.69,0,0,0-.29-3.49.68.68,0,0,1,.6.1l4.18,2.34-4.39,1.07Z" transform="translate(-0.1 -2.78)" style="fill:#45c768"/><path d="M2.93,31.34l-.07.1C2.86,31.39,2.86,31.34,2.93,31.34Z" transform="translate(-0.1 -2.78)" style="fill:#4de066"/><path d="M36.42,31.06a.25.25,0,0,0,.1.21c0,.84.11,1.67.19,2.51.13,1.48.2,3,.3,4.45a16.17,16.17,0,0,1,.17,1.83c0,.67.28,1.34,0,2l-6.92,3.08-.49.21-4.7-4.84V30.74s0,0,0-.06a2,2,0,0,0,.32-.1c2.05-.89,4.11-1.77,6.16-2.68a.72.72,0,0,1,.87.09C33.77,29,35.1,30,36.42,31.06Z" transform="translate(-0.1 -2.78)" style="fill:#4ce066"/><path d="M13,42.08a5.06,5.06,0,0,1,0-1.82c0-1,.17-2.1.25-3.15q.24-3,.47-6c0-.47.07-.93.1-1.4l0,0v0c.1.14.21.28.31.43q3.62,5.49,7.22,11l3.69,5.55v.83a20.33,20.33,0,0,1-2.59-1.1Z" transform="translate(-0.1 -2.78)" style="fill:#1fa4e7"/><path d="M37.21,42.07c.25-.67-.06-1.34,0-2A16.17,16.17,0,0,0,37,38.23c-.1-1.48-.17-3-.3-4.45-.08-.84-.19-1.67-.19-2.51,1.07,1.15,2,2.4,3,3.6q5.14,6.18,10.27,12.37a1,1,0,0,1-1.1,0L37.89,42.34C37.67,42.24,37.44,42.16,37.21,42.07Z" transform="translate(-0.1 -2.78)" style="fill:#45c768"/><path d="M25.09,47.43V46.6c0-2,0-4.05,0-6.08l4.7,4.84C28.25,46.09,26.71,46.85,25.09,47.43Z" transform="translate(-0.1 -2.78)" style="fill:#fcda56"/><path d="M36.42,31.06c-1.32-1-2.65-2-4-3.07a.72.72,0,0,0-.87-.09c-2.05.91-4.11,1.79-6.16,2.68a2,2,0,0,1-.32.1c0-.5,0-1,0-1.48A4.68,4.68,0,0,0,27,27.83a41.38,41.38,0,0,0,3-3,1.57,1.57,0,0,0,.86-.28c1.63-.71,3.26-1.44,4.88-2.16l.1,0c0,1.22.18,2.42.21,3.63v0C36.18,27.71,36.3,29.38,36.42,31.06Z" transform="translate(-0.1 -2.78)" style="fill:#fdda56"/><path d="M25.1,29.2c0,.49,0,1,0,1.48,0,0,0,0,0,.06l-6.69-.81.26.44c1,1.64,2.08,3.29,3.13,4.93S24,38.72,25.1,40.43v.09c0,2,0,4,0,6.08L21.4,41.05q-3.62-5.47-7.22-11c-.1-.15-.21-.29-.31-.43.09-1.11.19-2.21.27-3.32,0-.25,0-.51,0-.77l.11-.08c1.53.23,3.07.47,4.61.69,1,.15,2.08.27,3.13.41.63.52,1.13,1.18,1.82,1.65A3.41,3.41,0,0,0,25.1,29.2Z" transform="translate(-0.1 -2.78)" style="fill:#fdba24"/><path d="M25.1,40.43q-1.65-2.57-3.29-5.13c-1-1.64-2.09-3.29-3.13-4.93l-.26-.44,6.69.81Z" transform="translate(-0.1 -2.78)" style="fill:#45c767"/></svg>