<svg id="Capa_1" data-name="Capa 1" xmlns="http://www.w3.org/2000/svg" viewBox="0 0 49.79 50"><title>permisos</title><path d="M15.63.1H37.3v11A1.51,1.51,0,0,0,39,12.79c3.5,0,7,0,10.5,0,.44,0,.51.13.51.53Q50,24,50,34.69c0,3.65,0,7.29,0,10.93a4.41,4.41,0,0,1-3,4.23c-.28.1-.57.17-.86.25H22.85c-.09-.23.13-.25.23-.33a15.94,15.94,0,0,0,6.27-10.88c.07-.48.24-.52.63-.52H41.5a1.48,1.48,0,1,0,0-2.93H39.13c-3.06,0-6.12,0-9.18,0-.37,0-.59,0-.59-.5a6.81,6.81,0,0,0-.22-1.34,16.36,16.36,0,0,0-1.4-4h13.8a1.51,1.51,0,0,0,1.52-.92,1.47,1.47,0,0,0-1.48-2c-5.06,0-10.12,0-15.18,0a1.23,1.23,0,0,1-1-.44,15.81,15.81,0,0,0-13.14-5.38c-.28,0-.35,0-.35-.31,0-5.41,0-10.81,0-16.21a4.16,4.16,0,0,1,1.66-3.28A6,6,0,0,1,15.63.1ZM31,17.87H20.37a1.49,1.49,0,0,0-1.51.93,1.47,1.47,0,0,0,1.48,2H41.62a1.45,1.45,0,0,0,1.43-.9,1.47,1.47,0,0,0-1.45-2Z" transform="translate(-0.21 -0.1)" style="fill:#1c2746"/><path d="M11.91,50.1a8.1,8.1,0,0,0-1.62-.37,13.16,13.16,0,1,1,5.61.13,5.41,5.41,0,0,0-1.25.24ZM8.51,36.72a1.5,1.5,0,0,0-1.45.88,1.41,1.41,0,0,0,.34,1.65c.88.9,1.77,1.78,2.65,2.66a1.54,1.54,0,0,0,2.55,0l6.11-6.1a6.5,6.5,0,0,0,.57-.6,1.45,1.45,0,0,0-.82-2.36,1.52,1.52,0,0,0-1.45.5c-1.78,1.79-3.57,3.56-5.33,5.36-.3.3-.45.27-.71,0-.47-.52-1-1-1.48-1.49A1.52,1.52,0,0,0,8.51,36.72Z" transform="translate(-0.21 -0.1)" style="fill:#1c2746"/><path d="M40.23,1.06,49,9.84c-.09.07-.22,0-.34,0h-8c-.36,0-.46-.07-.46-.44,0-2.67,0-5.33,0-8Z" transform="translate(-0.21 -0.1)" style="fill:#1c2746"/></svg>