<svg id="Capa_1" data-name="Capa 1" xmlns="http://www.w3.org/2000/svg" viewBox="0 0 50 29.6"><title>fast-delivery</title><path d="M50.1,34.24a1.8,1.8,0,0,1-2,1.08c-.56,0-1.14,0-1.7,0-.25,0-.37,0-.44.32a5.6,5.6,0,0,1-10.83,0c-.07-.26-.17-.32-.43-.32H20.53c-.23,0-.34,0-.41.29a5.6,5.6,0,0,1-10.84,0c-.07-.23-.16-.31-.4-.3H6.39a1.47,1.47,0,0,1-1.6-1.61q0-2,0-3.9c0-.27-.06-.36-.34-.35-.8,0-1.6,0-2.4,0A1.79,1.79,0,0,1,.1,28.38V27.6a1.81,1.81,0,0,1,1.95-1.09c.84,0,1.69,0,2.54,0h10A1.52,1.52,0,0,0,16,25.86,1.37,1.37,0,0,0,16,24.38a1.47,1.47,0,0,0-1.4-.79c-4.2,0-8.39,0-12.59,0A1.87,1.87,0,0,1,.1,22.52v-.78a1.84,1.84,0,0,1,1.95-1.09c2.15,0,4.3,0,6.44,0,.66,0,1.31,0,2,0a1.48,1.48,0,0,0,1.42-1.5,1.28,1.28,0,0,0-1.41-1.33H10c-2.3,0-4.59,0-6.88,0a1.47,1.47,0,1,1,0-2.93c.44,0,.88,0,1.32,0,.26,0,.33-.07.32-.33q0-1.37,0-2.73a1.48,1.48,0,0,1,1.62-1.63c8.66,0,17.31,0,26,0,.38,0,.44.11.44.46q0,4,0,8.1a1.51,1.51,0,0,0,1.71,1.71H45.06a4.55,4.55,0,0,1,1.11.1C48.11,21,49.58,22,50,24.09c0,0,.06.06.09.09M12,34.19a2.69,2.69,0,1,0,2.7-2.69A2.69,2.69,0,0,0,12,34.19Zm25.88,0a2.69,2.69,0,1,0,2.68-2.71A2.69,2.69,0,0,0,37.89,34.21Z" transform="translate(-0.1 -10.2)" style="fill:#1c2746"/><path d="M43.79,17.54c-1.86-3.34-4-6.23-8-7,0,2.26,0,4.49,0,6.72,0,.25.09.28.31.28Z" transform="translate(-0.1 -10.2)" style="fill:#fefefe"/><path d="M43.79,17.54H36.05c-.22,0-.31,0-.31-.28,0-2.23,0-4.46,0-6.72C39.78,11.31,41.93,14.2,43.79,17.54Z" transform="translate(-0.1 -10.2)" style="fill:#1c2746"/></svg>