<svg xmlns="http://www.w3.org/2000/svg" viewBox="0 0 1600 600"><title>Sin título-1</title><g id="Capa_6" data-name="Capa 6"><rect x="0.5" y="0.5" width="1599" height="599" style="fill:#09f"/><path d="M1599,1V599H1V1H1599m1-1H0V600H1600V0Z"/></g><g id="Capa_3" data-name="Capa 3"><circle cx="41" cy="294.1" r="199.5" style="fill:#2558bf"/><path d="M41,95.1A199.6,199.6,0,0,1,224.4,216.6a200.1,200.1,0,0,1,0,154.9,199.8,199.8,0,0,1-42.7,63.3,197.4,197.4,0,0,1-63.2,42.6A197.7,197.7,0,0,1,41,493.1a197.7,197.7,0,0,1-77.5-15.7,197.4,197.4,0,0,1-63.2-42.6,199.8,199.8,0,0,1-42.7-63.3,200.1,200.1,0,0,1,0-154.9A198.7,198.7,0,0,1,41,95.1m0-1a199.9,199.9,0,0,0-200,200c0,110.4,89.5,200,200,200s200-89.6,200-200A199.9,199.9,0,0,0,41,94.1Z"/></g><g id="Capa_1" data-name="Capa 1"><circle cx="40" cy="290.1" r="149.5" style="fill:#fff"/><path d="M40,141.1a148.9,148.9,0,0,1,149,149,148,148,0,0,1-43.6,105.3A148,148,0,0,1,40,439.1,148,148,0,0,1-65.4,395.4,148,148,0,0,1-109,290.1a148.9,148.9,0,0,1,149-149m0-1a150,150,0,1,0,150,150,150,150,0,0,0-150-150Z"/><circle cx="1516" cy="504.1" r="149.5" style="fill:#1c2746"/><path d="M1516,355.1a148.9,148.9,0,1,1-105.4,43.6A148.4,148.4,0,0,1,1516,355.1m0-1a150,150,0,1,0,150,150,150,150,0,0,0-150-150Z"/></g><g id="Capa_2" data-name="Capa 2"><circle cx="110" cy="134.1" r="9.5" style="fill:#08a600"/><path d="M110,125.1a9,9,0,1,1-9,9,9,9,0,0,1,9-9m0-1a10,10,0,1,0,10,10,10,10,0,0,0-10-10Z"/><circle cx="110" cy="184.1" r="9.5" style="fill:#08a600"/><path d="M110,175.1a9,9,0,1,1-9,9,9,9,0,0,1,9-9m0-1a10,10,0,1,0,10,10,10,10,0,0,0-10-10Z"/><circle cx="110" cy="234.1" r="9.5" style="fill:#08a600"/><path d="M110,225.1a9,9,0,1,1-9,9,9,9,0,0,1,9-9m0-1a10,10,0,1,0,10,10,10,10,0,0,0-10-10Z"/><circle cx="166" cy="134.1" r="9.5" style="fill:#08a600"/><path d="M166,125.1a9,9,0,1,1-9,9,9,9,0,0,1,9-9m0-1a10,10,0,1,0,10,10,10,10,0,0,0-10-10Z"/><circle cx="166" cy="184.1" r="9.5" style="fill:#08a600"/><path d="M166,175.1a9,9,0,1,1-9,9,9,9,0,0,1,9-9m0-1a10,10,0,1,0,10,10,10,10,0,0,0-10-10Z"/><circle cx="166" cy="234.1" r="9.5" style="fill:#08a600"/><path d="M166,225.1a9,9,0,1,1-9,9,9,9,0,0,1,9-9m0-1a10,10,0,1,0,10,10,10,10,0,0,0-10-10Z"/><circle cx="219" cy="184.1" r="9.5" style="fill:#08a600"/><path d="M219,175.1a9,9,0,1,1-9,9,9,9,0,0,1,9-9m0-1a10,10,0,1,0,10,10,10,10,0,0,0-10-10Z"/><circle cx="219" cy="134.1" r="9.5" style="fill:#08a600"/><path d="M219,125.1a9,9,0,1,1-9,9,9,9,0,0,1,9-9m0-1a10,10,0,1,0,10,10,10,10,0,0,0-10-10Z"/><circle cx="219" cy="234.1" r="9.5" style="fill:#08a600"/><path d="M219,225.1a9,9,0,1,1-9,9,9,9,0,0,1,9-9m0-1a10,10,0,1,0,10,10,10,10,0,0,0-10-10Z"/><circle cx="433" cy="510.1" r="49.5" style="fill:#fff"/><path d="M433,461.1a49,49,0,1,1-49,49,49.1,49.1,0,0,1,49-49m0-1a50,50,0,1,0,50,50,50,50,0,0,0-50-50Z"/><circle cx="1086" cy="113.1" r="49.5" style="fill:#1c2746"/><path d="M1086,64.1a49,49,0,1,1-49,49,49.1,49.1,0,0,1,49-49m0-1a50,50,0,1,0,50,50,50,50,0,0,0-50-50Z"/><text transform="translate(252.6 320.1)" style="font-size:72px;fill:#fcfcfc;font-family:ArialMT, Arial">IMAGEN DE L<tspan x="464.1" y="0" style="letter-spacing:-0.05517578125em">A</tspan><tspan x="508.1" y="0" xml:space="preserve"> ENTRAD</tspan><tspan x="824.2" y="0" style="letter-spacing:-0.05517578125em">A</tspan><tspan x="868.2" y="0" xml:space="preserve"> ECO</tspan><tspan x="1044.2" y="0" style="letter-spacing:-0.037109375em">W</tspan><tspan x="1109.5" y="0">ASTE</tspan></text><circle cx="1461" cy="19.1" r="9.5" style="fill:#319a00"/><path d="M1461,10.1a9,9,0,1,1-9,9,9,9,0,0,1,9-9m0-1a10,10,0,1,0,10,10,10,10,0,0,0-10-10Z"/><circle cx="1461" cy="69.1" r="9.5" style="fill:#319a00"/><path d="M1461,60.1a9,9,0,1,1-9,9,9,9,0,0,1,9-9m0-1a10,10,0,1,0,10,10,10,10,0,0,0-10-10Z"/><circle cx="1461" cy="119.1" r="9.5" style="fill:#319a00"/><path d="M1461,110.1a9,9,0,1,1-9,9,9,9,0,0,1,9-9m0-1a10,10,0,1,0,10,10,10,10,0,0,0-10-10Z"/><circle cx="1517" cy="19.1" r="9.5" style="fill:#319a00"/><path d="M1517,10.1a9,9,0,1,1-9,9,9,9,0,0,1,9-9m0-1a10,10,0,1,0,10,10,10,10,0,0,0-10-10Z"/><circle cx="1517" cy="69.1" r="9.5" style="fill:#319a00"/><path d="M1517,60.1a9,9,0,1,1-9,9,9,9,0,0,1,9-9m0-1a10,10,0,1,0,10,10,10,10,0,0,0-10-10Z"/><circle cx="1517" cy="119.1" r="9.5" style="fill:#319a00"/><path d="M1517,110.1a9,9,0,1,1-9,9,9,9,0,0,1,9-9m0-1a10,10,0,1,0,10,10,10,10,0,0,0-10-10Z"/><circle cx="1570" cy="69.1" r="9.5" style="fill:#319a00"/><path d="M1570,60.1a9,9,0,1,1-9,9,9,9,0,0,1,9-9m0-1a10,10,0,1,0,10,10,10,10,0,0,0-10-10Z"/><circle cx="1570" cy="19.1" r="9.5" style="fill:#319a00"/><path d="M1570,10.1a9,9,0,1,1-9,9,9,9,0,0,1,9-9m0-1a10,10,0,1,0,10,10,10,10,0,0,0-10-10Z"/><circle cx="1570" cy="119.1" r="9.5" style="fill:#319a00"/><path d="M1570,110.1a9,9,0,1,1-9,9,9,9,0,0,1,9-9m0-1a10,10,0,1,0,10,10,10,10,0,0,0-10-10Z"/><circle cx="1461" cy="169.1" r="9.5" style="fill:#319a00"/><path d="M1461,160.1a9,9,0,1,1-9,9,9,9,0,0,1,9-9m0-1a10,10,0,1,0,10,10,10,10,0,0,0-10-10Z"/><circle cx="1517" cy="169.1" r="9.5" style="fill:#319a00"/><path d="M1517,160.1a9,9,0,1,1-9,9,9,9,0,0,1,9-9m0-1a10,10,0,1,0,10,10,10,10,0,0,0-10-10Z"/><circle cx="1570" cy="169.1" r="9.5" style="fill:#319a00"/><path d="M1570,160.1a9,9,0,1,1-9,9,9,9,0,0,1,9-9m0-1a10,10,0,1,0,10,10,10,10,0,0,0-10-10Z"/><circle cx="1461" cy="219.1" r="9.5" style="fill:#319a00"/><path d="M1461,210.1a9,9,0,1,1-9,9,9,9,0,0,1,9-9m0-1a10,10,0,1,0,10,10,10,10,0,0,0-10-10Z"/><circle cx="1517" cy="219.1" r="9.5" style="fill:#319a00"/><path d="M1517,210.1a9,9,0,1,1-9,9,9,9,0,0,1,9-9m0-1a10,10,0,1,0,10,10,10,10,0,0,0-10-10Z"/><circle cx="1570" cy="219.1" r="9.5" style="fill:#319a00"/><path d="M1570,210.1a9,9,0,1,1-9,9,9,9,0,0,1,9-9m0-1a10,10,0,1,0,10,10,10,10,0,0,0-10-10Z"/></g><g id="Capa_5" data-name="Capa 5"><path d="M455,660.6a74.5,74.5,0,1,1,74.5-74.5A74.6,74.6,0,0,1,455,660.6Zm0-140a65.5,65.5,0,1,0,65.5,65.5A65.6,65.6,0,0,0,455,520.6Z" style="fill:#1d751b"/><path d="M455,512.1a74,74,0,1,1-74,74,74.1,74.1,0,0,1,74-74m0,140a66,66,0,1,0-66-66,66.1,66.1,0,0,0,66,66m0-141a75,75,0,1,0,75,75,75,75,0,0,0-75-75Zm0,140a65,65,0,1,1,65-65,65,65,0,0,1-65,65Z"/></g><g id="Capa_4" data-name="Capa 4"><path d="M935,190.6c-110,0-199.5-89.5-199.5-199.5S825-208.4,935-208.4s199.5,89.5,199.5,199.5S1045,190.6,935,190.6Zm0-390C830-199.4,744.5-114,744.5-8.9S830,181.6,935,181.6,1125.5,96.1,1125.5-8.9,1040-199.4,935-199.4Z" style="fill:#167013"/><path d="M935-207.9a197.6,197.6,0,0,1,77.5,15.6,197.7,197.7,0,0,1,63.2,42.7,198.3,198.3,0,0,1,42.7,63.2A199,199,0,0,1,1134-8.9a198.9,198.9,0,0,1-15.6,77.4,199.8,199.8,0,0,1-42.7,63.3,197.4,197.4,0,0,1-63.2,42.6A197.7,197.7,0,0,1,935,190.1a197.7,197.7,0,0,1-77.5-15.7,197.4,197.4,0,0,1-63.2-42.6,199.8,199.8,0,0,1-42.7-63.3A198.9,198.9,0,0,1,736-8.9a199,199,0,0,1,15.6-77.5,198.3,198.3,0,0,1,42.7-63.2,197.7,197.7,0,0,1,63.2-42.7A197.6,197.6,0,0,1,935-207.9m0,390c105.3,0,191-85.7,191-191s-85.7-191-191-191S744-114.2,744-8.9s85.7,191,191,191m0-391A199.9,199.9,0,0,0,735-8.9c0,110.4,89.5,200,200,200s200-89.6,200-200a199.9,199.9,0,0,0-200-200Zm0,390c-104.9,0-190-85.1-190-190s85.1-190,190-190,190,85,190,190-85.1,190-190,190Z"/></g></svg>