<svg id="Capa_1" data-name="Capa 1" xmlns="http://www.w3.org/2000/svg" viewBox="0 0 50 50"><title>llamada-telefonica</title><path d="M13.87.06a6.71,6.71,0,0,1,1.69.75,4,4,0,0,1,1.63,3.13,42.63,42.63,0,0,0,.34,4.37,46.23,46.23,0,0,0,1.16,4.92,3.91,3.91,0,0,1-.82,3.56c-1.42,1.84-2.81,3.7-4.22,5.55-.15.2-.09.33,0,.51a31.53,31.53,0,0,0,13,13.28c.95.52.95.54,1.8-.11,1.72-1.31,3.43-2.63,5.16-3.93a3.72,3.72,0,0,1,3.24-.62c1.32.34,2.61.76,4,1A32.75,32.75,0,0,0,46,33a4,4,0,0,1,3.78,2.3c.15.3.14.66.37.92V46.93c-.15,0-.15.17-.18.27a4,4,0,0,1-4.05,2.86,47.71,47.71,0,0,1-11.1-1.43A45.63,45.63,0,0,1,19.18,41.3,46,46,0,0,1,4.32,23.23,44.85,44.85,0,0,1,.26,7.72a2,2,0,0,0-.16-1V3.18c.15,0,.15-.19.18-.31A4,4,0,0,1,2.41.42c.27-.13.61-.1.81-.36Z" transform="translate(-0.1 -0.06)" style="fill:#1c2746"/></svg>