<svg id="Capa_1" data-name="Capa 1" xmlns="http://www.w3.org/2000/svg" viewBox="0 0 36.19 50.01"><title>maps-and-flags</title><path d="M26.56.06a9.63,9.63,0,0,0,1.5.27,17.82,17.82,0,0,1,13.27,9.88,17.19,17.19,0,0,1,1.82,9.16,23.44,23.44,0,0,1-1.69,6.88A63,63,0,0,1,35,38.18a112.93,112.93,0,0,1-8.51,11.1,1.67,1.67,0,0,1-2.84,0A97.63,97.63,0,0,1,10.91,31a34.71,34.71,0,0,1-3.52-9.29,17.49,17.49,0,0,1,3.17-14.3,17.76,17.76,0,0,1,11-7A18.16,18.16,0,0,0,23.54.06ZM25.12,27.28A9.12,9.12,0,1,0,16,18.22,9.14,9.14,0,0,0,25.12,27.28Z" transform="translate(-7.01 -0.06)" style="fill:#1c2746"/></svg>