<svg id="Capa_1" data-name="Capa 1" xmlns="http://www.w3.org/2000/svg" viewBox="0 0 50 49.99"><title>user</title><path d="M33.89,19.21A8.79,8.79,0,1,0,25.1,28,8.81,8.81,0,0,0,33.89,19.21ZM43.07,10a1,1,0,1,0-1-1A1,1,0,0,0,43.07,10Z" transform="translate(-0.1 -0.06)" style="fill:#1c2746"/><path d="M27.05.06a7.88,7.88,0,0,0,1.74.27A24.67,24.67,0,0,1,40.32,5.22a1,1,0,1,1-1.19,1.55,22.67,22.67,0,0,0-8.44-4.08A22.94,22.94,0,0,0,2.82,19.31C.62,28.08,3,35.73,9.51,42l.22.19h.09a15.5,15.5,0,0,1,7-9.9A15.1,15.1,0,0,1,26.05,30,15.61,15.61,0,0,1,40.37,42.22c.16,0,.22-.1.31-.18A22.52,22.52,0,0,0,48,27.87a22.75,22.75,0,0,0-3-14.49l-.16-.29a1,1,0,0,1,.34-1.32.94.94,0,0,1,1.34.36,21.06,21.06,0,0,1,1.55,3,25,25,0,0,1,2,7.75c0,.09,0,.21.1.25v4c-.16.05-.09.19-.1.29a27,27,0,0,1-.52,3.22A25,25,0,0,1,.37,28.76,6.62,6.62,0,0,0,.1,27.11V23c.13,0,.09-.16.1-.25.09-.67.16-1.35.28-2A25,25,0,0,1,21.41.33,6.61,6.61,0,0,0,23.05.06Zm-2.66,48a23.52,23.52,0,0,0,13.3-3.73c1-.67,1-.67.74-1.84A13.62,13.62,0,0,0,20.22,32.8a13.27,13.27,0,0,0-8.59,10.35A.72.72,0,0,0,12,44,22.36,22.36,0,0,0,24.39,48.1Z" transform="translate(-0.1 -0.06)" style="fill:#1c2746"/><path d="M33.89,19.21a8.79,8.79,0,1,1-8.77-8.8A8.81,8.81,0,0,1,33.89,19.21Zm-8.77-6.85a6.84,6.84,0,1,0,6.81,6.88A6.86,6.86,0,0,0,25.12,12.36Z" transform="translate(-0.1 -0.06)" style="fill:#1c2746"/><path d="M43.07,10a1,1,0,1,1,1-.95A1,1,0,0,1,43.07,10Z" transform="translate(-0.1 -0.06)" style="fill:#1c2746"/><path d="M24.39,48.1A22.36,22.36,0,0,1,12,44a.72.72,0,0,1-.36-.87A13.27,13.27,0,0,1,20.22,32.8a13.62,13.62,0,0,1,18.21,9.73c.28,1.17.28,1.17-.74,1.84A23.52,23.52,0,0,1,24.39,48.1Z" transform="translate(-0.1 -0.06)" style="fill:#1c2746"/><path d="M25.12,12.36a6.84,6.84,0,1,1-6.86,6.79A6.85,6.85,0,0,1,25.12,12.36Z" transform="translate(-0.1 -0.06)" style="fill:#1c2746"/></svg>