<svg id="Capa_1" data-name="Capa 1" xmlns="http://www.w3.org/2000/svg" viewBox="0 0 50 50"><title>user</title><path d="M34.08,50.1H32.62c-.09-.17-.28-.14-.42-.19a4.11,4.11,0,0,1-2.87-3.28,10.67,10.67,0,0,1,0-2.33c0-.37-.08-.47-.45-.46-1.9,0-3.81,0-5.71,0a6.24,6.24,0,0,1-6.35-6.33v-4a2.6,2.6,0,0,1,.08-.73,2.11,2.11,0,0,1,2.25-1.48,2,2,0,0,1,1.81,2c0,1.35,0,2.7,0,4a2.09,2.09,0,0,0,2.27,2.28c1.86,0,3.71,0,5.57,0,.44,0,.52-.13.52-.55q0-10.51,0-21,0-4.79,0-9.57a4.12,4.12,0,0,1,2.83-4.06c.1,0,.23,0,.29-.18l-.19,0c-3.06,0-6.12,0-9.18,0a2,2,0,0,0-2.1,2.09c0,.67,0,1.34,0,2a2.07,2.07,0,1,1-4.14,0q0-1.1,0-2.19A6.23,6.23,0,0,1,21.55.27c.14,0,.33,0,.42-.17H46.48s.06.08.09.09A4.09,4.09,0,0,1,50,3.28c0,.09,0,.21.12.24V42.58c-.15,0-.12.18-.15.28a4.21,4.21,0,0,1-2.87,2.93l-1.2.4Z" transform="translate(-0.1 -0.1)" style="fill:#1c2746"/><path d="M.1,20.41a2.38,2.38,0,0,1,1.59-1.5,2.92,2.92,0,0,1,.72-.06c2.56,0,5.11,0,7.67,0,.36,0,.46-.09.45-.46,0-1.83,0-3.67,0-5.51a2.08,2.08,0,0,1,1.28-2.2,2.14,2.14,0,0,1,2.5.65c2.64,2.66,5.29,5.3,7.94,8a2.11,2.11,0,0,1,0,3.29c-2.69,2.69-5.38,5.39-8.08,8.07a2.08,2.08,0,0,1-3.55-.81,2.86,2.86,0,0,1-.08-.87c0-1.82,0-3.65,0-5.47,0-.37-.08-.49-.47-.49-2.35,0-4.69,0-7,0-1.32,0-2.37-.26-2.93-1.56Z" transform="translate(-0.1 -0.1)" style="fill:#1c2746"/></svg>